<svg width="13" height="14" viewBox="0 0 13 14" version="1.1" xmlns="http://www.w3.org/2000/svg" xmlns:xlink="http://www.w3.org/1999/xlink">
<title>Group</title>
<desc>Created using Figma</desc>
<g id="Canvas" transform="translate(-8695 489)">
<g id="Group">
<g id="Vector">
<use xlink:href="#path0_fill" transform="translate(8695 -487.703)" fill="#828282"/>
</g>
<g id="Vector">
<use xlink:href="#path1_fill" transform="translate(8697.76 -489)" fill="#828282"/>
</g>
<g id="Vector">
<use xlink:href="#path2_fill" transform="translate(8704.29 -489)" fill="#828282"/>
</g>
<g id="Vector">
<use xlink:href="#path3_fill" transform="translate(8702 -483.489)" fill="#828282"/>
</g>
<g id="Vector">
<use xlink:href="#path4_fill" transform="translate(8704.66 -478.26)" fill="#828282"/>
</g>
<g id="Vector">
<use xlink:href="#path5_fill" transform="translate(8701.98 -478.262)" fill="#828282"/>
</g>
<g id="Vector">
<use xlink:href="#path6_fill" transform="translate(8699.29 -478.265)" fill="#828282"/>
</g>
<g id="Vector">
<use xlink:href="#path7_fill" transform="translate(8696.61 -478.265)" fill="#828282"/>
</g>
<g id="Vector">
<use xlink:href="#path8_fill" transform="translate(8704.66 -480.891)" fill="#828282"/>
</g>
<g id="Vector">
<use xlink:href="#path9_fill" transform="translate(8701.99 -480.889)" fill="#828282"/>
</g>
<g id="Vector">
<use xlink:href="#path10_fill" transform="translate(8704.67 -483.487)" fill="#828282"/>
</g>
<g id="Vector">
<use xlink:href="#path11_fill" transform="translate(8699.29 -480.894)" fill="#828282"/>
</g>
<g id="Vector">
<use xlink:href="#path12_fill" transform="translate(8696.61 -480.894)" fill="#828282"/>
</g>
<g id="Vector">
<use xlink:href="#path13_fill" transform="translate(8699.3 -483.489)" fill="#828282"/>
</g>
</g>
</g>
<defs>
<path id="path0_fill" d="M 2.27362 0.00577878C 2.27362 0.41949 2.27133 0.821381 2.27592 1.22091C 2.27821 1.33911 2.28279 1.45968 2.3103 1.57079C 2.42719 2.05779 2.86953 2.36748 3.3646 2.31783C 3.81382 2.27292 4.19429 1.8592 4.21033 1.3793C 4.22408 0.970316 4.21492 0.55897 4.21721 0.149987C 4.21721 0.102705 4.21721 0.0577882 4.21721 0.0081429C 5.75053 0.0081429 7.26781 0.0081429 8.79655 0.0081429C 8.79655 0.173627 8.79425 0.334384 8.79655 0.49514C 8.80113 0.819017 8.78279 1.14289 8.81717 1.46204C 8.87218 1.99159 9.32599 2.35329 9.84855 2.3202C 10.3322 2.28946 10.7355 1.85211 10.7401 1.33911C 10.7447 0.941948 10.7424 0.542421 10.7424 0.145259C 10.7424 0.102705 10.7424 0.0601523 10.7424 0.0081429C 10.7814 0.00577884 10.8158 0.00105073 10.8478 0.00105073C 11.1848 0.00105073 11.5194 -0.00131333 11.8563 0.00105073C 12.4637 0.00577886 12.9473 0.473863 12.9931 1.10034C 12.9977 1.15471 12.9977 1.21145 12.9977 1.26582C 12.9977 4.65826 12.9977 8.05068 13 11.4408C 13 11.8143 12.8946 12.1382 12.6241 12.3935C 12.4224 12.585 12.1841 12.6866 11.909 12.6984C 11.8701 12.7008 11.8334 12.7008 11.7944 12.7008C 8.26481 12.7008 4.73519 12.7008 1.20786 12.7032C 0.790726 12.7032 0.4561 12.5495 0.213152 12.1996C 0.059591 11.9821 0.00229196 11.7315 0.00229196 11.4644C 0.00458392 10.3935 0.00229196 9.32019 0.00229196 8.24927C 0.00229196 5.92539 0.00458392 3.60152 -3.41529e-11 1.27528C -3.41529e-11 0.863934 0.121474 0.51878 0.433181 0.254005C 0.607369 0.107434 0.80677 0.012871 1.02909 0.00577878C 1.43935 -0.00367747 1.84732 0.00577878 2.27362 0.00577878ZM 12.3468 3.57079C 8.44816 3.57079 4.56329 3.57079 0.664669 3.57079C 0.664669 3.62516 0.664669 3.67008 0.664669 3.71736C 0.664669 4.254 0.664669 4.78828 0.664669 5.32492C 0.664669 7.36511 0.664669 9.40766 0.664669 11.4478C 0.664669 11.8072 0.852609 12.0105 1.18494 12.0105C 4.73061 12.0105 8.27398 12.0105 11.8196 12.0105C 11.8724 12.0105 11.9274 12.0081 11.9778 11.9939C 12.2207 11.9277 12.3468 11.7221 12.3468 11.4006C 12.3468 8.83083 12.3468 6.26345 12.3468 3.69372C 12.3468 3.65353 12.3468 3.6157 12.3468 3.57079Z"/>
<path id="path1_fill" d="M 0 1.53666C 0 1.20096 0 0.86763 0 0.531933C 0.00229196 0.22224 0.203984 -0.00234557 0.481312 1.84893e-05C 0.758639 1.84893e-05 0.960331 0.22224 0.960331 0.534297C 0.962623 1.20805 0.962623 1.88181 0.960331 2.55321C 0.960331 2.86999 0.754055 3.09458 0.474436 3.09221C 0.1994 3.08748 0.00229193 2.86526 0.00229193 2.55321C -3.50067e-08 2.21515 0 1.87472 0 1.53666Z"/>
<path id="path2_fill" d="M -2.7978e-07 1.53666C -2.7978e-07 1.20096 -2.7978e-07 0.86763 -2.7978e-07 0.531933C -2.7978e-07 0.219877 0.201693 -0.00234538 0.47902 1.86834e-05C 0.751763 1.86834e-05 0.955748 0.217513 0.95804 0.524841C 0.962624 1.20569 0.962624 1.88891 0.95804 2.56976C 0.955748 2.87708 0.754055 3.09458 0.481311 3.09458C 0.213152 3.09458 0.00458378 2.8629 0.00229182 2.55557C -1.39856e-07 2.21515 -2.7978e-07 1.87709 -2.7978e-07 1.53666Z"/>
<path id="path3_fill" d="M 1.77627 1.92435C 1.17807 1.92435 0.59591 1.92435 2.7978e-07 1.92435C 2.7978e-07 1.28369 2.7978e-07 0.645389 2.7978e-07 1.44291e-07C 0.591326 1.44291e-07 1.18036 1.44291e-07 1.77627 1.44291e-07C 1.77627 0.640661 1.77627 1.27659 1.77627 1.92435Z"/>
<path id="path4_fill" d="M 1.3989e-07 1.91726C 1.3989e-07 1.27423 1.3989e-07 0.643025 1.3989e-07 -2.88582e-07C 0.589034 -2.88582e-07 1.17807 -2.88582e-07 1.77627 -2.88582e-07C 1.77627 0.633569 1.77627 1.27187 1.77627 1.91726C 1.18953 1.91726 0.600494 1.91726 1.3989e-07 1.91726Z"/>
<path id="path5_fill" d="M 1.3989e-07 1.91962C 1.3989e-07 1.27659 1.3989e-07 0.643025 1.3989e-07 2.88582e-07C 0.591326 2.88582e-07 1.17807 2.88582e-07 1.77856 2.88582e-07C 1.77856 0.633569 1.77856 1.27187 1.77856 1.91962C 1.18953 1.91962 0.600494 1.91962 1.3989e-07 1.91962Z"/>
<path id="path6_fill" d="M 1.77627 1.44291e-07C 1.77627 0.643025 1.77627 1.27896 1.77627 1.92198C 1.18265 1.92198 0.598202 1.92198 1.3989e-07 1.92198C 1.3989e-07 1.28369 1.3989e-07 0.645389 1.3989e-07 1.44291e-07C 0.591326 1.44291e-07 1.18036 1.44291e-07 1.77627 1.44291e-07Z"/>
<path id="path7_fill" d="M 0 1.44291e-07C 0.598202 1.44291e-07 1.18494 1.44291e-07 1.77856 1.44291e-07C 1.77856 0.640661 1.77856 1.27896 1.77856 1.92198C 1.18494 1.92198 0.59591 1.92198 0 1.92198C 0 1.28132 0 0.645389 0 1.44291e-07Z"/>
<path id="path8_fill" d="M 1.77856 0C 1.77856 0.645389 1.77856 1.27896 1.77856 1.91962C 1.18494 1.91962 0.59591 1.91962 0 1.91962C 0 1.27896 0 0.643025 0 0C 0.593618 0 1.18265 0 1.77856 0Z"/>
<path id="path9_fill" d="M 2.7978e-07 1.91726C 2.7978e-07 1.27423 2.7978e-07 0.640661 2.7978e-07 1.44291e-07C 0.593618 1.44291e-07 1.18265 1.44291e-07 1.77856 1.44291e-07C 1.77856 0.638297 1.77856 1.27423 1.77856 1.91726C 1.18724 1.91726 0.598202 1.91726 2.7978e-07 1.91726Z"/>
<path id="path10_fill" d="M 1.77398 1.91962C 1.18036 1.91962 0.593617 1.91962 -2.7978e-07 1.91962C -2.7978e-07 1.27896 -2.7978e-07 0.643025 -2.7978e-07 -7.21455e-08C 0.586742 -7.21455e-08 1.17578 -7.21455e-08 1.77398 -7.21455e-08C 1.77398 0.633569 1.77398 1.2695 1.77398 1.91962Z"/>
<path id="path11_fill" d="M 6.51414e-16 -1.44291e-07C 0.593618 -1.44291e-07 1.18036 -1.44291e-07 1.77398 -1.44291e-07C 1.77398 0.638297 1.77398 1.27423 1.77398 1.91962C 1.18494 1.91962 0.59591 1.91962 6.51414e-16 1.91962C 1.30283e-15 1.28369 6.51414e-16 0.650117 6.51414e-16 -1.44291e-07Z"/>
<path id="path12_fill" d="M -3.49725e-08 -1.44291e-07C 0.593618 -1.44291e-07 1.18036 -1.44291e-07 1.77627 -1.44291e-07C 1.77856 0.042553 1.78315 0.080378 1.78315 0.118203C 1.78315 0.68085 1.78085 1.2435 1.78544 1.80614C 1.78544 1.90071 1.76252 1.9338 1.66626 1.9338C 1.14827 1.92908 0.627997 1.93144 0.110014 1.93144C 0.0756347 1.93144 0.0435472 1.92908 -3.49725e-08 1.92671C -3.49725e-08 1.28369 -3.49725e-08 0.650117 -3.49725e-08 -1.44291e-07Z"/>
<path id="path13_fill" d="M -1.3989e-07 1.91962C -1.3989e-07 1.27659 -1.3989e-07 0.640661 -1.3989e-07 1.44291e-07C 0.593618 1.44291e-07 1.18265 1.44291e-07 1.77856 1.44291e-07C 1.77856 0.640661 1.77856 1.27659 1.77856 1.91962C 1.18494 1.91962 0.59591 1.91962 -1.3989e-07 1.91962Z"/>
</defs>
</svg>
