<svg width="22" height="22" viewBox="0 0 22 22" version="1.1" xmlns="http://www.w3.org/2000/svg" xmlns:xlink="http://www.w3.org/1999/xlink">
<title>Cross 1.1</title>
<desc>Created using Figma</desc>
<g id="Canvas" transform="translate(-8512 -592)">
<g id="Cross 1.1">
<g id="Vector">
<use xlink:href="#path0_fill" transform="matrix(-4.37114e-08 -1 1 -4.37114e-08 8512 614)" fill="#FFFFFF"/>
</g>
</g>
</g>
<defs>
<path id="path0_fill" d="M 11.9294 10.9907C 12.096 11.1216 12.1912 11.181 12.2685 11.2583C 15.4034 14.3865 18.5383 17.5206 21.6614 20.6607C 21.822 20.8213 21.9469 21.0711 21.9826 21.2971C 22.0242 21.5647 21.8517 21.7847 21.6019 21.9156C 21.352 22.0464 21.1022 22.0226 20.8702 21.862C 20.775 21.7966 20.6917 21.7015 20.6085 21.6182C 17.4914 18.496 14.3743 15.3797 11.2572 12.2575C 11.1799 12.1801 11.1204 12.0909 10.9241 11.9541C 10.8646 12.0552 10.823 12.1801 10.7397 12.2634C 7.61075 15.3975 4.47583 18.5317 1.34091 21.6658C 1.10297 21.9037 0.853125 22.0702 0.496208 21.9572C 0.0203195 21.7966 -0.15219 21.2495 0.151189 20.851C 0.216624 20.7678 0.299904 20.6905 0.377236 20.6131C 3.50026 17.485 6.61733 14.3687 9.74035 11.2524C 9.81768 11.1751 9.91881 11.1216 10.0021 11.0621C 10.014 11.0145 10.0259 10.9669 10.0378 10.9193C 9.93665 10.8599 9.81173 10.8182 9.72845 10.735C 6.59948 7.60681 3.46457 4.47267 0.329647 1.33854C 0.0976514 1.10661 -0.0689097 0.868722 0.0322167 0.52379C 0.174983 0.0301789 0.740101 -0.160129 1.15056 0.155068C 1.24573 0.226434 1.32307 0.315641 1.41229 0.3989C 4.51747 3.50329 7.62264 6.60769 10.7278 9.71208C 10.8111 9.79534 10.8706 9.90239 10.942 9.99755C 10.9896 10.0094 11.0371 10.0213 11.0788 10.0332C 11.1383 9.93213 11.1799 9.80724 11.2632 9.72993C 14.3922 6.5958 17.5271 3.46167 20.662 0.327535C 20.894 0.0955972 21.1319 -0.0709221 21.477 0.0301789C 21.9707 0.17291 22.1611 0.737886 21.8458 1.14824C 21.7744 1.24339 21.6852 1.3207 21.6019 1.40991C 18.4967 4.5143 15.3915 7.6187 12.2864 10.7231C 12.2031 10.8004 12.096 10.8658 11.9294 10.9907Z"/>
</defs>
</svg>
