<svg width="48" height="44" viewBox="0 0 48 44" version="1.1" xmlns="http://www.w3.org/2000/svg" xmlns:xlink="http://www.w3.org/1999/xlink">
<title>Group</title>
<desc>Created using Figma</desc>
<g id="Canvas" transform="translate(-6339 -33)">
<g id="Group">
<g id="Group">
<g id="Vector">
<use xlink:href="#path0_fill" transform="translate(6370.41 33)" fill="url(#paint0_linear)"/>
</g>
<g id="Vector">
<use xlink:href="#path1_fill" transform="translate(6339 35.3154)" fill="url(#paint1_linear)"/>
</g>
<g id="Vector">
<use xlink:href="#path2_fill" transform="translate(6372.51 35.6329)" fill="url(#paint2_linear)"/>
</g>
</g>
</g>
</g>
<defs>
<linearGradient id="paint0_linear" x1="0" y1="0" x2="1" y2="0" gradientUnits="userSpaceOnUse" gradientTransform="matrix(16.6117 0 0 16.5258 -0.0194156 4.16383)">
<stop offset="0.00264423" stop-color="#EF612F"/>
<stop offset="0.9987" stop-color="#EFA215"/>
</linearGradient>
<linearGradient id="paint1_linear" x1="0" y1="0" x2="1" y2="0" gradientUnits="userSpaceOnUse" gradientTransform="matrix(33.3936 0 0 33.221 0.000346204 4.26021)">
<stop offset="0.00264423" stop-color="#EF612F"/>
<stop offset="0.9987" stop-color="#EFA215"/>
</linearGradient>
<linearGradient id="paint2_linear" x1="0" y1="0" x2="1" y2="0" gradientUnits="userSpaceOnUse" gradientTransform="matrix(2.62011 0 0 2.60657 -0.0240501 -0.269329)">
<stop offset="0.00264423" stop-color="#EF612F"/>
<stop offset="0.9987" stop-color="#EFA215"/>
</linearGradient>
<path id="path0_fill" d="M 8.29726 23.0339C 5.10281 23.0339 2.44769 20.6814 1.99134 17.6273L 14.6032 17.6273C 14.1468 20.6814 11.4917 23.0339 8.29726 23.0339ZM 8.29726 5.90604C 9.91523 8.62999 12.4459 13.1699 13.0682 15.6875L 3.52633 15.6875C 4.10714 13.335 6.38889 9.08398 8.29726 5.90604ZM 8.29726 1.90267C 8.62915 1.90267 8.91955 2.19157 8.91955 2.52175C 8.91955 2.85192 8.62915 3.14083 8.29726 3.14083C 7.96537 3.14083 7.67496 2.85192 7.67496 2.52175C 7.67496 2.19157 7.92388 1.90267 8.29726 1.90267ZM 15.6403 15.6875L 14.9766 15.6875C 14.3543 12.5095 11.1183 6.93784 9.70779 4.58534C 10.4131 4.09008 10.8694 3.26464 10.7864 2.31539C 10.7035 1.07723 9.66631 0.0867068 8.42172 0.00416304C 6.92821 -0.0783807 5.72511 1.07723 5.72511 2.52175C 5.72511 3.38846 6.18146 4.13135 6.84524 4.62662C 5.4347 6.93784 2.19877 12.5095 1.57648 15.6875L 0.954185 15.6875C 0.414863 15.6875 -1.26606e-06 16.1415 -1.26606e-06 16.6367C -1.26606e-06 21.1766 3.73377 24.8911 8.29726 24.8911C 12.8608 24.8911 16.5945 21.1766 16.5945 16.6367C 16.5945 16.1002 16.1797 15.6875 15.6403 15.6875Z"/>
<path id="path1_fill" d="M 31.5299 38.1765L 31.5299 39.8686L 16.4704 39.8686L 16.4704 38.1765L 31.5299 38.1765ZM 28.0451 34.7922L 28.0451 36.278L 19.9138 36.278L 19.9138 34.7922L 28.0451 34.7922ZM 23.3157 7.22258C 23.5231 7.26385 23.7305 7.26385 23.9794 7.26385C 24.1869 7.26385 24.4358 7.26385 24.6432 7.22258L 24.6432 32.8937L 23.3157 32.8937L 23.3157 7.22258ZM 3.36074 20.3058C 3.94155 17.9533 6.18181 13.7435 8.09018 10.5243C 9.70814 13.2483 12.2388 17.7882 12.8611 20.3058L 3.36074 20.3058ZM 8.09018 27.5696C 4.89573 27.5696 2.24061 25.2171 1.78426 22.163L 14.3961 22.163C 13.9397 25.2171 11.2846 27.5696 8.09018 27.5696ZM 8.09018 6.43842C 8.42207 6.43842 8.71247 6.72732 8.71247 7.05749C 8.71247 7.38767 8.42207 7.67657 8.09018 7.67657C 7.75829 7.67657 7.46788 7.38767 7.46788 7.05749C 7.46788 6.72732 7.75829 6.43842 8.09018 6.43842ZM 23.9379 1.89851C 24.8921 1.89851 25.6804 2.68267 25.6804 3.63193C 25.6804 4.58118 24.8921 5.36535 23.9379 5.36535C 22.9838 5.36535 22.1955 4.58118 22.1955 3.63193C 22.1955 2.68267 22.9838 1.89851 23.9379 1.89851ZM 32.4426 36.1954L 29.912 36.1954L 29.912 33.8842C 29.912 33.3477 29.4971 32.935 28.9578 32.935L 26.5101 32.935L 26.5101 6.23206C 27.1324 5.61298 27.5473 4.78754 27.5887 3.83829L 31.6129 2.97158C 32.1107 2.84776 32.4426 2.3525 32.3597 1.81596C 32.2352 1.27943 31.7374 0.990525 31.2395 1.07307L 27.2154 1.93978C 26.5931 0.784166 25.39 -7.87199e-08 24.0209 -7.87199e-08C 22.1125 -7.87199e-08 20.5361 1.52706 20.4116 3.42557L 10.3304 5.61298C 9.70814 4.74627 8.50504 4.29228 7.30194 4.74627C 6.72113 4.9939 6.22329 5.44789 5.97437 6.0257C 5.43505 7.30512 5.93289 8.54328 6.84559 9.16236C 5.39357 11.5561 2.19912 17.1278 1.57683 20.3058L 0.871559 20.3058C 0.415209 20.3058 0.000346204 20.6772 0.000346204 21.1725C -0.0411401 25.7537 3.65114 29.5507 8.25612 29.5507C 12.8196 29.5507 16.5534 25.7949 16.5119 21.1725C 16.5119 20.6772 16.097 20.3058 15.6407 20.3058L 14.9354 20.3058C 14.3131 17.1278 11.1187 11.5561 9.70814 9.20363C 10.2889 8.83218 10.6623 8.21311 10.7868 7.47021L 20.7435 5.2828C 20.9094 5.61298 21.1584 5.94315 21.4073 6.19078L 21.4073 32.8937L 18.8766 32.8937C 18.3373 32.8937 17.9224 33.3064 17.9224 33.843L 17.9224 36.278L 15.3918 36.278C 14.8524 36.278 14.4376 36.6907 14.4376 37.2272L 14.4376 40.7354C 14.4376 41.2719 14.8524 41.6846 15.3918 41.6846L 32.4011 41.6846C 32.9405 41.6846 33.3553 41.2719 33.3553 40.7354L 33.3553 37.1447C 33.3968 36.6494 32.982 36.1954 32.4426 36.1954Z"/>
<path id="path2_fill" d="M 0.925405 2.07624C 1.00838 2.07624 1.04986 2.07624 1.13284 2.03496L 1.8381 1.86988C 2.33594 1.74606 2.66783 1.2508 2.58486 0.755535C 2.4604 0.260273 1.96256 -0.0699027 1.46473 0.0126411L 0.75946 0.177729C 0.261624 0.301544 -0.0702646 0.796807 0.012708 1.29207C 0.0956806 1.74606 0.510542 2.07624 0.925405 2.07624Z"/>
</defs>
</svg>
