<svg width="44" height="44" viewBox="0 0 44 44" version="1.1" xmlns="http://www.w3.org/2000/svg" xmlns:xlink="http://www.w3.org/1999/xlink">
<title>Facebook </title>
<desc>Created using Figma</desc>
<g id="Canvas" transform="translate(-7163 -2356)">
<g id="Facebook ">
<g id="Vector">
<use xlink:href="#path0_fill" transform="translate(7163.16 2356.54)" fill="#FFA515"/>
</g>
</g>
</g>
<defs>
<path id="path0_fill" d="M 21.5 0C 9.62512 0 0 9.62512 0 21.5C 0 33.3749 9.62512 43 21.5 43C 33.3749 43 43 33.3749 43 21.5C 43 9.62512 33.3749 0 21.5 0ZM 28.1426 21.3228L 24.0542 21.3228L 24.0542 36.4004L 17.8605 36.4004L 17.8605 21.4209L 14.4893 21.4209L 14.4893 16.2179L 17.759 16.2179C 17.759 14.6785 17.7728 13.3128 17.759 11.8852C 17.759 7.78816 20.9032 6.59964 23.7291 6.59964L 28.4918 6.59964L 28.4935 6.59964L 28.4935 11.739C 28.0928 11.7407 26.5344 11.739 25.7329 11.739C 25.6314 11.739 23.9476 11.6461 23.9476 13.2646C 23.9579 13.9251 23.9476 16.2024 23.9476 16.2024L 28.5124 16.2024L 28.1426 21.3228Z"/>
</defs>
</svg>
