<svg width="43" height="41" viewBox="0 0 43 41" version="1.1" xmlns="http://www.w3.org/2000/svg" xmlns:xlink="http://www.w3.org/1999/xlink">
<title>Facebook </title>
<desc>Created using Figma</desc>
<g id="Canvas" transform="translate(-7172 -393)">
<g id="Facebook ">
<g id="Vector">
<use xlink:href="#path0_fill" transform="translate(7172.16 393)" fill="#E0E0E0"/>
</g>
</g>
</g>
<defs>
<path id="path0_fill" d="M 21.1494 0C 9.46818 0 0 9.17744 0 20.5C 0 31.8226 9.46818 41 21.1494 41C 32.8307 41 42.2989 31.8226 42.2989 20.5C 42.2989 9.17744 32.8307 0 21.1494 0ZM 27.6838 20.3311L 23.662 20.3311L 23.662 34.7073L 17.5693 34.7073L 17.5693 20.4246L 14.253 20.4246L 14.253 15.4636L 17.4694 15.4636C 17.4694 13.9958 17.483 12.6936 17.4694 11.3324C 17.4694 7.42592 20.5623 6.29268 23.3422 6.29268L 28.0272 6.29268L 28.0289 6.29268L 28.0289 11.193C 27.6347 11.1946 26.1018 11.193 25.3133 11.193C 25.2135 11.193 23.5571 11.1044 23.5571 12.6477C 23.5672 13.2774 23.5571 15.4488 23.5571 15.4488L 28.0475 15.4488L 27.6838 20.3311Z"/>
</defs>
</svg>
