<svg width="51" height="51" viewBox="0 0 51 51" version="1.1" xmlns="http://www.w3.org/2000/svg" xmlns:xlink="http://www.w3.org/1999/xlink">
<title>Group</title>
<desc>Created using Figma</desc>
<g id="Canvas" transform="translate(-6508 -36)">
<g id="Group">
<g id="Group">
<g id="Group">
<g id="Vector">
<use xlink:href="#path0_fill" transform="translate(6509 37)" fill="url(#paint0_linear)"/>
<use xlink:href="#path1_stroke" transform="translate(6509 37)" fill="url(#paint1_linear)"/>
</g>
<g id="Vector">
<use xlink:href="#path2_fill" transform="translate(6513.05 53.1997)" fill="url(#paint2_linear)"/>
<use xlink:href="#path3_stroke" transform="translate(6513.05 53.1997)" fill="url(#paint3_linear)"/>
</g>
<g id="Vector">
<use xlink:href="#path4_fill" transform="translate(6535.94 54.8689)" fill="url(#paint4_linear)"/>
<use xlink:href="#path5_stroke" transform="translate(6535.94 54.8689)" fill="url(#paint5_linear)"/>
</g>
<g id="Vector">
<use xlink:href="#path6_fill" transform="translate(6519.61 48.4008)" fill="url(#paint6_linear)"/>
<use xlink:href="#path7_stroke" transform="translate(6519.61 48.4008)" fill="url(#paint7_linear)"/>
</g>
</g>
<g id="Vector">
<use xlink:href="#path8_fill" transform="translate(6511.65 70.5508)" fill="url(#paint8_linear)"/>
</g>
</g>
</g>
</g>
<defs>
<linearGradient id="paint0_linear" x1="0" y1="0" x2="1" y2="0" gradientUnits="userSpaceOnUse" gradientTransform="matrix(44.9765 0 0 44.9765 0 -6.1532)">
<stop offset="0.00264423" stop-color="#EF612F"/>
<stop offset="0.9987" stop-color="#EFA215"/>
</linearGradient>
<linearGradient id="paint1_linear" x1="0" y1="0" x2="1" y2="0" gradientUnits="userSpaceOnUse" gradientTransform="matrix(45.4418 0 0 45.4418 -0.232669 -6.38587)">
<stop offset="0.00264423" stop-color="#EF612F"/>
<stop offset="0.9987" stop-color="#EFA215"/>
</linearGradient>
<linearGradient id="paint2_linear" x1="0" y1="0" x2="1" y2="0" gradientUnits="userSpaceOnUse" gradientTransform="matrix(44.9528 0 0 44.9528 0.0077246 -6.06924)">
<stop offset="0.00264423" stop-color="#EF612F"/>
<stop offset="0.9987" stop-color="#EFA215"/>
</linearGradient>
<linearGradient id="paint3_linear" x1="0" y1="0" x2="1" y2="0" gradientUnits="userSpaceOnUse" gradientTransform="matrix(45.4181 0 0 45.4181 -0.224944 -6.30191)">
<stop offset="0.00264423" stop-color="#EF612F"/>
<stop offset="0.9987" stop-color="#EFA215"/>
</linearGradient>
<linearGradient id="paint4_linear" x1="0" y1="0" x2="1" y2="0" gradientUnits="userSpaceOnUse" gradientTransform="matrix(14.7227 0 0 14.7227 -0.0293767 0.0552588)">
<stop offset="0.00264423" stop-color="#EF612F"/>
<stop offset="0.9987" stop-color="#EFA215"/>
</linearGradient>
<linearGradient id="paint5_linear" x1="0" y1="0" x2="1" y2="0" gradientUnits="userSpaceOnUse" gradientTransform="matrix(15.188 0 0 15.188 -0.262045 -0.177782)">
<stop offset="0.00264423" stop-color="#EF612F"/>
<stop offset="0.9987" stop-color="#EFA215"/>
</linearGradient>
<linearGradient id="paint6_linear" x1="0" y1="0" x2="1" y2="0" gradientUnits="userSpaceOnUse" gradientTransform="matrix(14.7192 0 0 14.7192 0.0261082 8.17055)">
<stop offset="0.00264423" stop-color="#EF612F"/>
<stop offset="0.9987" stop-color="#EFA215"/>
</linearGradient>
<linearGradient id="paint7_linear" x1="0" y1="0" x2="1" y2="0" gradientUnits="userSpaceOnUse" gradientTransform="matrix(15.1846 0 0 15.1846 -0.20656 7.93788)">
<stop offset="0.00264423" stop-color="#EF612F"/>
<stop offset="0.9987" stop-color="#EFA215"/>
</linearGradient>
<linearGradient id="paint8_linear" x1="0" y1="0" x2="1" y2="0" gradientUnits="userSpaceOnUse" gradientTransform="matrix(2.1566 0 0 2.1566 -0.0104701 -0.025198)">
<stop offset="0.00264423" stop-color="#EF612F"/>
<stop offset="0.9987" stop-color="#EFA215"/>
</linearGradient>
<path id="path0_fill" d="M 1.62868 24.5233C 1.62868 11.9126 11.9126 1.62868 24.5233 1.62868C 31.5964 1.62868 38.2042 4.97911 42.5318 10.5632L 37.5527 10.5632C 37.0874 10.6097 36.7151 10.982 36.7151 11.4473C 36.7151 11.9126 37.0874 12.2849 37.5527 12.2384L 44.0674 12.2384C 44.114 12.2384 44.114 12.2384 44.1605 12.2384C 44.207 12.2384 44.2536 12.2384 44.3001 12.1918C 44.3466 12.1918 44.3932 12.1453 44.4397 12.1453C 44.4397 12.1453 44.4862 12.1453 44.4862 12.0988L 44.5328 12.0522C 44.5793 12.0057 44.6258 11.9592 44.6724 11.9126C 44.7189 11.8661 44.7189 11.8196 44.7654 11.773C 44.812 11.7265 44.812 11.68 44.812 11.6334C 44.812 11.5869 44.8585 11.5404 44.8585 11.4473C 44.8585 11.4008 44.8585 11.4008 44.905 11.3542L 44.905 4.88604C 44.8585 4.4207 44.4862 4.04843 44.0209 4.04843C 43.5556 4.04843 43.1833 4.4207 43.2298 4.88604L 43.2298 8.93447C 38.6695 3.30389 31.8291 0 24.5233 0C 11.0285 0 0 10.982 0 24.5233C 0 27.1292 0.418803 29.6885 1.20988 32.1083C 1.30294 32.434 1.62868 32.6667 2.00095 32.6667C 2.09402 32.6667 2.18708 32.6667 2.23362 32.6201C 2.65242 32.4805 2.88509 32.0152 2.74549 31.5964C 2.00095 29.3162 1.62868 26.943 1.62868 24.5233Z"/>
<path id="path1_stroke" d="M 42.5318 10.5632L 42.5318 11.0632L 43.5519 11.0632L 42.927 10.2569L 42.5318 10.5632ZM 37.5527 10.5632L 37.5527 10.0632L 37.5278 10.0632L 37.503 10.0656L 37.5527 10.5632ZM 37.5527 12.2384L 37.5527 11.7384L 37.5278 11.7384L 37.503 11.7408L 37.5527 12.2384ZM 44.3001 12.1918L 44.3001 11.6918L 44.093 11.6918L 43.9465 11.8383L 44.3001 12.1918ZM 44.4397 12.1453L 44.4397 12.6453L 44.4397 12.6453L 44.4397 12.1453ZM 44.4862 12.0988L 44.1327 11.7452L 43.9862 11.8917L 43.9862 12.0988L 44.4862 12.0988ZM 44.5328 12.0522L 44.1792 11.6987L 44.1792 11.6987L 44.5328 12.0522ZM 44.905 11.3542L 45.2586 11.7078L 45.405 11.5613L 45.405 11.3542L 44.905 11.3542ZM 44.905 4.88604L 45.405 4.88604L 45.405 4.8611L 45.4026 4.83629L 44.905 4.88604ZM 43.2298 4.88604L 43.7298 4.88604L 43.7298 4.8611L 43.7273 4.83629L 43.2298 4.88604ZM 43.2298 8.93447L 42.8413 9.24917L 43.7298 10.3462L 43.7298 8.93447L 43.2298 8.93447ZM 1.20988 32.1083L 1.69064 31.9709L 1.68805 31.9618L 1.68512 31.9529L 1.20988 32.1083ZM 2.23362 32.6201L 2.0755 32.1458L 1.96353 32.1831L 1.88007 32.2666L 2.23362 32.6201ZM 2.74549 31.5964L 2.27018 31.7516L 2.27115 31.7545L 2.74549 31.5964ZM 2.12868 24.5233C 2.12868 12.1888 12.1888 2.12868 24.5233 2.12868L 24.5233 1.12868C 11.6365 1.12868 1.12868 11.6365 1.12868 24.5233L 2.12868 24.5233ZM 24.5233 2.12868C 31.4365 2.12868 37.9004 5.40337 42.1366 10.8694L 42.927 10.2569C 38.508 4.55485 31.7563 1.12868 24.5233 1.12868L 24.5233 2.12868ZM 42.5318 10.0632L 37.5527 10.0632L 37.5527 11.0632L 42.5318 11.0632L 42.5318 10.0632ZM 37.503 10.0656C 36.8102 10.1349 36.2151 10.6977 36.2151 11.4473L 37.2151 11.4473C 37.2151 11.2662 37.3645 11.0845 37.6025 11.0607L 37.503 10.0656ZM 36.2151 11.4473C 36.2151 12.178 36.8133 12.8148 37.6025 12.7359L 37.503 11.7408C 37.3614 11.755 37.2151 11.6473 37.2151 11.4473L 36.2151 11.4473ZM 37.5527 12.7384L 44.0674 12.7384L 44.0674 11.7384L 37.5527 11.7384L 37.5527 12.7384ZM 44.0674 12.7384C 44.114 12.7384 44.114 12.7384 44.1605 12.7384L 44.1605 11.7384C 44.114 11.7384 44.114 11.7384 44.0674 11.7384L 44.0674 12.7384ZM 44.1605 12.7384C 44.2145 12.7384 44.4517 12.7474 44.6536 12.5454L 43.9465 11.8383C 43.9887 11.7961 44.0463 11.7632 44.109 11.7475C 44.155 11.736 44.1931 11.7384 44.1605 11.7384L 44.1605 12.7384ZM 44.3001 12.6918C 44.3936 12.6918 44.4679 12.6687 44.5106 12.6527C 44.5511 12.6375 44.5866 12.6192 44.5935 12.6158C 44.6099 12.6076 44.5977 12.6142 44.5804 12.6207C 44.5609 12.628 44.51 12.6453 44.4397 12.6453L 44.4397 11.6453C 44.3462 11.6453 44.2719 11.6684 44.2292 11.6844C 44.1887 11.6996 44.1532 11.7179 44.1463 11.7214C 44.1299 11.7295 44.1421 11.7229 44.1594 11.7164C 44.1789 11.7091 44.2298 11.6918 44.3001 11.6918L 44.3001 12.6918ZM 44.4397 12.1453C 44.4397 12.6453 44.4399 12.6453 44.4402 12.6453C 44.4403 12.6453 44.4405 12.6453 44.4407 12.6453C 44.4408 12.6453 44.4413 12.6453 44.4417 12.6453C 44.442 12.6453 44.443 12.6453 44.4437 12.6453C 44.4444 12.6453 44.4465 12.6453 44.4479 12.6452C 44.4494 12.6452 44.4538 12.6451 44.4569 12.645C 44.4602 12.6449 44.4702 12.6444 44.4773 12.6439C 44.4857 12.6433 44.5108 12.6406 44.5292 12.6378C 44.5532 12.6334 44.6306 12.6113 44.6866 12.5867C 44.8428 12.5086 44.9862 12.3376 44.9862 12.0988L 43.9862 12.0988C 43.9862 12.0229 44.0066 11.9328 44.0629 11.8483C 44.1171 11.767 44.1859 11.719 44.2394 11.6923C 44.2909 11.6665 44.3364 11.6561 44.3648 11.6514C 44.3801 11.6488 44.3941 11.6473 44.4061 11.6465C 44.4002 11.6469 44.4262 11.6455 44.4236 11.6456C 44.4208 11.6456 44.4331 11.6453 44.4318 11.6454C 44.4304 11.6454 44.4364 11.6453 44.4358 11.6453C 44.4351 11.6453 44.4381 11.6453 44.4377 11.6453C 44.4374 11.6453 44.4389 11.6453 44.4387 11.6453C 44.4389 11.6453 44.4391 11.6453 44.4392 11.6453C 44.4395 11.6453 44.4397 11.6453 44.4397 12.1453ZM 44.8398 12.4523L 44.8863 12.4058L 44.1792 11.6987L 44.1327 11.7452L 44.8398 12.4523ZM 44.8863 12.4058C 44.9328 12.3593 44.9794 12.3127 45.0259 12.2662L 44.3188 11.5591C 44.2723 11.6056 44.2257 11.6521 44.1792 11.6987L 44.8863 12.4058ZM 45.0259 12.2662C 45.1123 12.1798 45.1544 12.0899 45.1661 12.0664C 45.1777 12.0434 45.1588 12.0868 45.119 12.1266L 44.4119 11.4195C 44.3255 11.5058 44.2834 11.5958 44.2717 11.6192C 44.2601 11.6423 44.279 11.5989 44.3188 11.5591L 45.0259 12.2662ZM 45.119 12.1266C 45.321 11.9246 45.312 11.6874 45.312 11.6334L 44.312 11.6334C 44.312 11.666 44.3096 11.6279 44.3211 11.5819C 44.3368 11.5192 44.3697 11.4616 44.4119 11.4195L 45.119 12.1266ZM 45.312 11.6334C 45.312 11.7036 45.2945 11.7536 45.2907 11.7642C 45.2885 11.7704 45.2871 11.7736 45.2892 11.7687C 45.2911 11.764 45.2949 11.7549 45.2995 11.7435C 45.322 11.6873 45.3585 11.5846 45.3585 11.4473L 44.3585 11.4473C 44.3585 11.4031 44.3718 11.3702 44.371 11.3721C 44.3698 11.3752 44.3678 11.3799 44.3642 11.3886C 44.3606 11.3974 44.3535 11.4155 44.3477 11.4314C 44.3353 11.4667 44.312 11.5399 44.312 11.6334L 45.312 11.6334ZM 45.3585 11.4473C 45.3585 11.4264 45.3591 11.4463 45.3568 11.4694C 45.3531 11.5063 45.3423 11.5628 45.3115 11.6244C 45.285 11.6774 45.2551 11.7105 45.2498 11.7163C 45.2455 11.7211 45.2432 11.7232 45.2586 11.7078L 44.5515 11.0007C 44.5398 11.0123 44.5219 11.0304 44.5065 11.0474C 44.4881 11.0678 44.4494 11.1125 44.4171 11.1772C 44.3925 11.2331 44.3674 11.3267 44.3617 11.3699C 44.3591 11.402 44.3585 11.4357 44.3585 11.4473L 45.3585 11.4473ZM 45.405 11.3542L 45.405 4.88604L 44.405 4.88604L 44.405 11.3542L 45.405 11.3542ZM 45.4026 4.83629C 45.3333 4.14353 44.7705 3.54843 44.0209 3.54843L 44.0209 4.54843C 44.202 4.54843 44.3837 4.69788 44.4075 4.93579L 45.4026 4.83629ZM 44.0209 3.54843C 43.2902 3.54843 42.6534 4.14664 42.7323 4.93579L 43.7273 4.83629C 43.7132 4.69476 43.8209 4.54843 44.0209 4.54843L 44.0209 3.54843ZM 42.7298 4.88604L 42.7298 8.93447L 43.7298 8.93447L 43.7298 4.88604L 42.7298 4.88604ZM 43.6184 8.61978C 38.9639 2.87298 31.9812 -0.5 24.5233 -0.5L 24.5233 0.5C 31.6769 0.5 38.3751 3.7348 42.8413 9.24917L 43.6184 8.61978ZM 24.5233 -0.5C 10.753 -0.5 -0.5 10.7052 -0.5 24.5233L 0.5 24.5233C 0.5 11.2587 11.304 0.5 24.5233 0.5L 24.5233 -0.5ZM -0.5 24.5233C -0.498357 27.1697 -0.0669742 29.8069 0.734629 32.2636L 1.68512 31.9529C 0.904581 29.5701 0.498357 27.0887 0.5 24.5233L -0.5 24.5233ZM 0.729115 32.2456C 0.890245 32.8096 1.43095 33.1667 2.00095 33.1667L 2.00095 32.1667C 1.82641 32.1667 1.71564 32.0584 1.69064 31.9709L 0.729115 32.2456ZM 2.00095 33.1667C 2.04748 33.1667 2.12946 33.1654 2.20544 33.1558C 2.2817 33.1449 2.44854 33.1123 2.58717 32.9737L 1.88007 32.2666C 1.92811 32.2185 1.97711 32.1937 2.00852 32.1814C 2.03878 32.1696 2.06012 32.1664 2.06403 32.1659C 2.0657 32.1653 2.06787 32.1658 2.0539 32.1662C 2.03942 32.1667 2.02422 32.1667 2.00095 32.1667L 2.00095 33.1667ZM 2.39173 33.0945C 3.07251 32.8675 3.44676 32.1191 3.21983 31.4383L 2.27115 31.7545C 2.32342 31.9113 2.23234 32.0935 2.0755 32.1458L 2.39173 33.0945ZM 3.22079 31.4412C 2.48714 29.1995 2.12717 26.9042 2.12868 24.5233L 1.12868 24.5233C 1.13019 26.9819 1.51476 29.433 2.27019 31.7516L 3.22079 31.4412Z"/>
<path id="path2_fill" d="M 43.6952 0.552456C 43.5556 0.133653 43.0902 -0.0990153 42.6714 0.0405859C 42.2526 0.180187 42.0199 0.645523 42.1595 1.06433C 42.9506 3.39101 43.3229 5.81076 43.3229 8.27705C 43.3229 20.8877 33.0855 31.1251 20.4748 31.1251C 13.4017 31.1251 6.79392 27.7747 2.46629 22.1906L 7.39886 22.1906C 7.8642 22.1441 8.23647 21.7718 8.23647 21.3065C 8.23647 20.8412 7.8642 20.4689 7.39886 20.5154L 0.837607 20.5154C 0.791073 20.5154 0.791073 20.5154 0.744539 20.5154C 0.698006 20.5154 0.651472 20.5154 0.604938 20.562C 0.558405 20.562 0.511871 20.6085 0.465337 20.6085C 0.465337 20.6085 0.418804 20.6085 0.418804 20.655L 0.37227 20.7016C 0.325736 20.7481 0.279202 20.7946 0.232668 20.8412C 0.186135 20.8877 0.186135 20.9342 0.139601 20.9808C 0.0930674 21.0273 0.0930673 21.0738 0.0930673 21.1204C 0.0930673 21.1669 0.0465338 21.2134 0.0465338 21.26C 0.0465338 21.3065 0.0465336 21.3065 -8.8756e-08 21.353L -8.8756e-08 27.8677C 0.0465336 28.3331 0.37227 28.7054 0.837607 28.7054C 1.30294 28.7054 1.67521 28.3331 1.67521 27.8677L 1.67521 23.8193C 6.28205 29.4964 13.1225 32.8003 20.4283 32.8003C 33.9231 32.8003 44.9516 21.8184 44.9516 8.27705C 44.9516 5.67116 44.5328 3.06528 43.6952 0.552456Z"/>
<path id="path3_stroke" d="M 43.6952 0.552456L 44.1695 0.394342L 44.1695 0.394342L 43.6952 0.552456ZM 42.1595 1.06433L 41.6852 1.22244L 41.6862 1.22528L 42.1595 1.06433ZM 2.46629 22.1906L 2.46629 21.6906L 1.44621 21.6906L 2.07108 22.4969L 2.46629 22.1906ZM 7.39886 22.1906L 7.39886 22.6906L 7.4238 22.6906L 7.44861 22.6882L 7.39886 22.1906ZM 7.39886 20.5154L 7.39886 21.0154L 7.4238 21.0154L 7.44861 21.0129L 7.39886 20.5154ZM 0.604938 20.562L 0.604938 21.062L 0.812045 21.062L 0.958492 20.9155L 0.604938 20.562ZM 0.465337 20.6085L 0.465329 21.1085L 0.465337 21.1085L 0.465337 20.6085ZM 0.418804 20.655L 0.772367 21.0086L 0.918804 20.8621L 0.918804 20.655L 0.418804 20.655ZM 0.37227 20.7016L 0.725823 21.0551L 0.725833 21.0551L 0.37227 20.7016ZM -8.8756e-08 21.353L -0.353553 20.9995L -0.5 21.1459L -0.5 21.353L -8.8756e-08 21.353ZM -8.8756e-08 27.8677L -0.5 27.8677L -0.5 27.8927L -0.497519 27.9175L -8.8756e-08 27.8677ZM 1.67521 23.8193L 2.06347 23.5043L 1.17521 22.4096L 1.17521 23.8193L 1.67521 23.8193ZM 44.9516 8.27705L 45.4516 8.27705L 44.9516 8.27705ZM 44.1695 0.394342C 43.9426 -0.286433 43.1941 -0.660681 42.5133 -0.433756L 42.8295 0.514928C 42.9864 0.46265 43.1685 0.553738 43.2208 0.71057L 44.1695 0.394342ZM 42.5133 -0.433756C 41.8325 -0.206831 41.4583 0.541665 41.6852 1.22244L 42.6339 0.906212C 42.5816 0.749381 42.6727 0.567205 42.8295 0.514928L 42.5133 -0.433756ZM 41.6862 1.22528C 42.465 3.50996 42.8243 5.84889 42.8229 8.27705L 43.8229 8.27705C 43.8214 5.77264 43.4363 3.27207 42.6329 0.903375L 41.6862 1.22528ZM 42.8229 8.27705C 42.8229 20.6115 32.8093 30.6251 20.4748 30.6251L 20.4748 31.6251C 33.3616 31.6251 43.8229 21.1638 43.8229 8.27705L 42.8229 8.27705ZM 20.4748 30.6251C 13.5616 30.6251 7.0977 27.3504 2.86149 21.8843L 2.07108 22.4969C 6.49014 28.1989 13.2418 31.6251 20.4748 31.6251L 20.4748 30.6251ZM 2.46629 22.6906L 7.39886 22.6906L 7.39886 21.6906L 2.46629 21.6906L 2.46629 22.6906ZM 7.44861 22.6882C 8.14138 22.6189 8.73647 22.0561 8.73647 21.3065L 7.73647 21.3065C 7.73647 21.4876 7.58702 21.6693 7.34911 21.6931L 7.44861 22.6882ZM 8.73647 21.3065C 8.73647 20.5758 8.13826 19.939 7.34911 20.0179L 7.44861 21.0129C 7.59014 20.9988 7.73647 21.1065 7.73647 21.3065L 8.73647 21.3065ZM 7.39886 20.0154L 0.837607 20.0154L 0.837607 21.0154L 7.39886 21.0154L 7.39886 20.0154ZM 0.837607 20.0154C 0.81434 20.0154 0.802707 20.0154 0.791073 20.0154C 0.77944 20.0154 0.767806 20.0154 0.744539 20.0154L 0.744539 21.0154C 0.767806 21.0154 0.77944 21.0154 0.791073 21.0154C 0.802707 21.0154 0.81434 21.0154 0.837607 21.0154L 0.837607 20.0154ZM 0.744539 20.0154C 0.690585 20.0154 0.453373 20.0064 0.251385 20.2084L 0.958492 20.9155C 0.916316 20.9577 0.858765 20.9906 0.796003 21.0063C 0.750037 21.0178 0.711984 21.0154 0.744539 21.0154L 0.744539 20.0154ZM 0.604938 20.062C 0.5114 20.062 0.437171 20.0851 0.394479 20.1011C 0.353902 20.1163 0.318423 20.1346 0.311534 20.138C 0.295156 20.1462 0.307369 20.1395 0.324678 20.1331C 0.344104 20.1258 0.395066 20.1085 0.465337 20.1085L 0.465337 21.1085C 0.558875 21.1085 0.633104 21.0854 0.675797 21.0694C 0.716373 21.0542 0.751852 21.0359 0.758742 21.0324C 0.775119 21.0242 0.762907 21.0309 0.745597 21.0374C 0.726172 21.0447 0.67521 21.062 0.604938 21.062L 0.604938 20.062ZM 0.465337 20.6085C 0.465345 20.1085 0.4651 20.1085 0.464855 20.1085C 0.464773 20.1085 0.464527 20.1085 0.464362 20.1085C 0.464197 20.1085 0.4637 20.1085 0.463368 20.1085C 0.463031 20.1085 0.462022 20.1085 0.461343 20.1085C 0.460645 20.1085 0.458564 20.1085 0.457148 20.1086C 0.455658 20.1086 0.45123 20.1087 0.448165 20.1088C 0.4448 20.1089 0.434815 20.1094 0.427721 20.1098C 0.419381 20.1105 0.394243 20.1132 0.375874 20.116C 0.351896 20.1204 0.274419 20.1425 0.218468 20.1671C 0.0622389 20.2452 -0.0811964 20.4161 -0.0811964 20.655L 0.918804 20.655C 0.918804 20.7309 0.898403 20.821 0.842099 20.9055C 0.787882 20.9868 0.719172 21.0348 0.665673 21.0615C 0.614131 21.0873 0.568643 21.0977 0.540259 21.1024C 0.524882 21.105 0.510974 21.1064 0.498954 21.1073C 0.504775 21.1069 0.478782 21.1083 0.481464 21.1082C 0.484189 21.1081 0.471946 21.1084 0.473259 21.1084C 0.474588 21.1084 0.468611 21.1085 0.469264 21.1085C 0.469921 21.1085 0.466964 21.1085 0.467289 21.1085C 0.467616 21.1085 0.466145 21.1085 0.466308 21.1085C 0.466145 21.1085 0.4659 21.1085 0.465818 21.1085C 0.465574 21.1085 0.465329 21.1085 0.465337 20.6085ZM 0.0652401 20.3015L 0.0187062 20.348L 0.725833 21.0551L 0.772367 21.0086L 0.0652401 20.3015ZM 0.0187163 20.348C -0.0278132 20.3945 -0.074347 20.4411 -0.120885 20.4876L 0.586222 21.1947C 0.632751 21.1482 0.679285 21.1016 0.725823 21.0551L 0.0187163 20.348ZM -0.120885 20.4876C -0.207222 20.5739 -0.249354 20.6639 -0.26108 20.6874C -0.272621 20.7104 -0.253755 20.667 -0.213952 20.6272L 0.493155 21.3343C 0.579491 21.248 0.621623 21.158 0.63335 21.1346C 0.64489 21.1115 0.626025 21.1549 0.586222 21.1947L -0.120885 20.4876ZM -0.213952 20.6272C -0.415936 20.8292 -0.406933 21.0664 -0.406933 21.1204L 0.593067 21.1204C 0.593067 21.0878 0.595447 21.1259 0.583954 21.1718C 0.568263 21.2346 0.535326 21.2921 0.493155 21.3343L -0.213952 20.6272ZM -0.406933 21.1204C -0.406933 21.0501 -0.389653 20.9991 -0.382369 20.9797C -0.375878 20.9624 -0.369226 20.9502 -0.377415 20.9666C -0.38086 20.9734 -0.399145 21.0089 -0.414361 21.0495C -0.43037 21.0922 -0.453466 21.1664 -0.453466 21.26L 0.546534 21.26C 0.546534 21.3302 0.529254 21.3812 0.52197 21.4006C 0.515479 21.4179 0.508827 21.4301 0.517016 21.4138C 0.520461 21.4069 0.538746 21.3714 0.553962 21.3308C 0.569971 21.2881 0.593067 21.2139 0.593067 21.1204L -0.406933 21.1204ZM -0.453466 21.26C -0.453466 21.2808 -0.454027 21.261 -0.451712 21.2378C -0.448025 21.201 -0.437297 21.1445 -0.406493 21.0829C -0.379965 21.0298 -0.350019 20.9968 -0.344741 20.9909C -0.340424 20.9861 -0.338131 20.9841 -0.353553 20.9995L 0.353553 21.7066C 0.365186 21.6949 0.383081 21.6768 0.398546 21.6599C 0.416911 21.6395 0.455582 21.5948 0.487927 21.5301C 0.512566 21.4742 0.537673 21.3806 0.543325 21.3373C 0.545913 21.3052 0.546534 21.2716 0.546534 21.26L -0.453466 21.26ZM -0.5 21.353L -0.5 27.8677L 0.5 27.8677L 0.5 21.353L -0.5 21.353ZM -0.497519 27.9175C -0.431871 28.574 0.0554019 29.2054 0.837607 29.2054L 0.837607 28.2054C 0.689138 28.2054 0.524938 28.0922 0.497519 27.818L -0.497519 27.9175ZM 0.837607 29.2054C 1.57909 29.2054 2.17521 28.6092 2.17521 27.8677L 1.17521 27.8677C 1.17521 28.0569 1.0268 28.2054 0.837607 28.2054L 0.837607 29.2054ZM 2.17521 27.8677L 2.17521 23.8193L 1.17521 23.8193L 1.17521 27.8677L 2.17521 27.8677ZM 1.28696 24.1344C 5.98735 29.9268 12.9696 33.3003 20.4283 33.3003L 20.4283 32.3003C 13.2754 32.3003 6.57675 29.0661 2.06347 23.5043L 1.28696 24.1344ZM 20.4283 33.3003C 34.1986 33.3003 45.4516 22.0951 45.4516 8.27705L 44.4516 8.27705C 44.4516 21.5416 33.6476 32.3003 20.4283 32.3003L 20.4283 33.3003ZM 45.4516 8.27705C 45.45 5.63137 45.0184 2.94616 44.1695 0.394342L 43.2208 0.71057C 44.0472 3.1844 44.4532 5.71096 44.4516 8.27705L 45.4516 8.27705Z"/>
<path id="path4_fill" d="M 0.0537325 14.3324C 0.0537325 14.3324 0.0537325 14.3789 0.0537325 14.3324C 0.100266 14.4254 0.146801 14.5185 0.239868 14.6116C 0.286402 14.6581 0.379469 14.7047 0.472537 14.7512L 0.51907 14.7977C 0.612137 14.8443 0.705205 14.8443 0.844806 14.8443L 4.89324 14.8443L 5.07938 14.8443C 5.77738 14.8443 9.50008 14.7047 12.0594 12.1453C 14.898 9.30674 14.7584 5.16524 14.7584 5.02564L 14.7584 0.930675C 14.7584 0.930675 14.4327 0.0930681 13.9673 7.10048e-07L 9.91888 0.139601L 9.73275 0.139601C 9.03474 0.139601 5.31204 0.279202 2.75269 2.83856C -0.0858672 5.67711 0.0537325 9.81861 0.0537325 9.95821L 0.0537325 14.0066C -0.0393349 14.0997 0.00719879 14.2393 0.0537325 14.3324ZM 3.8695 3.90883C 5.96351 1.81481 9.12781 1.67521 9.73275 1.67521L 13.1762 1.67521L 13.1762 4.97911C 13.1762 5.02564 13.3158 8.5622 10.9426 10.9354C 8.84861 13.0294 5.68431 13.169 5.07938 13.169L 2.79922 13.169L 11.2684 4.69991C 11.5941 4.37417 11.5941 3.8623 11.2684 3.53656C 10.9426 3.21083 10.4308 3.21083 10.105 3.53656L 1.63588 12.0057L 1.63588 9.86515C 1.63588 9.81861 1.54281 6.23552 3.8695 3.90883Z"/>
<path id="path5_stroke" d="M 0.0537325 14.3324L 0.553733 14.3324L 0.553733 14.2143L 0.500946 14.1088L 0.0537325 14.3324ZM 0.0537325 14.3324L 0.500946 14.1088L -0.446267 12.2143L -0.446267 14.3324L 0.0537325 14.3324ZM 0.472537 14.7512L 0.82609 14.3976L 0.768716 14.3403L 0.696143 14.304L 0.472537 14.7512ZM 0.51907 14.7977L 0.165516 15.1513L 0.22289 15.2086L 0.295463 15.2449L 0.51907 14.7977ZM 14.7584 0.930675L 15.2584 0.930675L 15.2584 0.836875L 15.2244 0.749452L 14.7584 0.930675ZM 13.9673 7.10048e-07L 14.0654 -0.49029L 14.0083 -0.501709L 13.9501 -0.499702L 13.9673 7.10048e-07ZM 9.91888 0.139601L 9.91888 0.639601L 9.9275 0.639601L 9.93611 0.639305L 9.91888 0.139601ZM 0.0537325 14.0066L 0.407286 14.3602L 0.553733 14.2138L 0.553733 14.0066L 0.0537325 14.0066ZM 13.1762 1.67521L 13.6762 1.67521L 13.6762 1.17521L 13.1762 1.17521L 13.1762 1.67521ZM 2.79922 13.169L 2.44567 12.8155L 1.59212 13.669L 2.79922 13.669L 2.79922 13.169ZM 11.2684 4.69991L 11.6219 5.05346L 11.2684 4.69991ZM 10.105 3.53656L 10.4586 3.89012L 10.105 3.53656ZM 1.63588 12.0057L 1.13588 12.0057L 1.13588 13.2128L 1.98943 12.3593L 1.63588 12.0057ZM 0.0537325 14.3324C -0.446267 14.3324 -0.446267 14.3324 -0.446267 14.3324L -0.446267 14.3324C -0.446267 14.3324 -0.446267 14.3324 -0.446267 14.3324C -0.446267 14.3324 -0.446267 14.3324 -0.446267 14.3324C -0.446267 14.3324 -0.446267 14.3325 -0.446267 14.3325C -0.446267 14.3326 -0.446267 14.3327 -0.446267 14.3329C -0.446267 14.3332 -0.446267 14.3337 -0.446267 14.3343C -0.446267 14.3355 -0.446267 14.3371 -0.446267 14.3389C -0.446267 14.3426 -0.446267 14.3469 -0.446267 14.3498C -0.446267 14.3513 -0.446267 14.3524 -0.446267 14.3528C -0.446267 14.3529 -0.446267 14.353 -0.446267 14.353C -0.446267 14.3531 -0.446267 14.3531 -0.446267 14.3531C -0.446267 14.3531 -0.446267 14.3531 -0.446267 14.3531C 0.0537325 14.3531 0.553733 14.3531 0.553733 14.3531C 0.553733 14.3531 0.553733 14.3531 0.553733 14.3531C 0.553733 14.3531 0.553733 14.353 0.553733 14.353C 0.553733 14.3529 0.553733 14.3526 0.553733 14.352C 0.553733 14.3498 0.553733 14.344 0.553733 14.3324L -0.446267 14.3324C -0.446267 14.344 -0.446267 14.3498 -0.446267 14.352C -0.446267 14.3526 -0.446267 14.3529 -0.446267 14.353C -0.446267 14.353 -0.446267 14.3531 -0.446267 14.3531C -0.446267 14.3531 -0.446267 14.3531 -0.446267 14.3531C -0.446267 14.3531 0.0537325 14.3531 0.553733 14.3531C 0.553733 14.3531 0.553733 14.3531 0.553733 14.3531C 0.553733 14.3531 0.553733 14.3531 0.553733 14.353C 0.553733 14.353 0.553733 14.3529 0.553733 14.3528C 0.553733 14.3524 0.553733 14.3513 0.553733 14.3498C 0.553733 14.3469 0.553733 14.3426 0.553733 14.3389C 0.553733 14.3371 0.553733 14.3355 0.553733 14.3343C 0.553733 14.3337 0.553733 14.3332 0.553733 14.3329C 0.553733 14.3327 0.553733 14.3326 0.553733 14.3325C 0.553733 14.3325 0.553733 14.3324 0.553733 14.3324C 0.553733 14.3324 0.553733 14.3324 0.553733 14.3324C 0.553733 14.3324 0.553733 14.3324 0.553733 14.3324L 0.553733 14.3324C 0.553733 14.3324 0.553733 14.3324 0.0537325 14.3324ZM -0.393481 14.556C -0.346948 14.6491 -0.258821 14.8109 -0.113685 14.9651L 0.593421 14.258C 0.563424 14.228 0.547388 14.2017 0.500946 14.1088L -0.393481 14.556ZM -0.113685 14.9651C 0.00475813 15.0836 0.191992 15.1699 0.24893 15.1984L 0.696143 14.304C 0.646579 14.2792 0.613184 14.2623 0.586817 14.2473C 0.580062 14.2434 0.578161 14.2423 0.573279 14.2392C 0.568688 14.2364 0.565973 14.2344 0.568295 14.236C 0.569277 14.2367 0.569374 14.2368 0.569706 14.2371C 0.569886 14.2372 0.574674 14.2409 0.574147 14.2405C 0.577917 14.2436 0.584768 14.2494 0.593421 14.258L -0.113685 14.9651ZM 0.118983 15.1047L 0.165516 15.1513L 0.872623 14.4442L 0.82609 14.3976L 0.118983 15.1047ZM 0.295463 15.2449C 0.51298 15.3537 0.731638 15.3443 0.844806 15.3443L 0.844806 14.3443C 0.809907 14.3443 0.784014 14.3443 0.760299 14.3437C 0.738425 14.3431 0.726369 14.3422 0.71971 14.3415C 0.711094 14.3405 0.72454 14.3414 0.742676 14.3505L 0.295463 15.2449ZM 0.844806 15.3443L 4.89324 15.3443L 4.89324 14.3443L 0.844806 14.3443L 0.844806 15.3443ZM 4.89324 15.3443L 5.07938 15.3443L 5.07938 14.3443L 4.89324 14.3443L 4.89324 15.3443ZM 5.07938 15.3443C 5.79849 15.3443 9.70293 15.2089 12.413 12.4989L 11.7059 11.7917C 9.29723 14.2004 5.75627 14.3443 5.07938 14.3443L 5.07938 15.3443ZM 12.413 12.4989C 13.8977 10.9989 14.6317 9.12696 14.9609 7.68417C 15.1262 6.95364 15.2025 6.29588 15.2347 5.83229C 15.2509 5.59657 15.257 5.39827 15.2588 5.26175C 15.2606 5.11952 15.2584 5.01501 15.2584 5.02564L 14.2584 5.02564C 14.2584 5.17905 14.3823 9.1153 11.7059 11.7917L 12.413 12.4989ZM 15.2584 5.02564L 15.2584 0.930675L 14.2584 0.930675L 14.2584 5.02564L 15.2584 5.02564ZM 14.7584 0.930675C 15.2244 0.749452 15.2243 0.749348 15.2243 0.74924C 15.2243 0.7492 15.2242 0.749088 15.2242 0.749008C 15.2242 0.748914 15.2241 0.748672 15.224 0.748485C 15.2239 0.748246 15.2237 0.747681 15.2235 0.747204C 15.2232 0.746523 15.2227 0.745079 15.2221 0.743722C 15.2213 0.74156 15.2196 0.737451 15.2179 0.733195C 15.2149 0.725817 15.2096 0.712973 15.2036 0.698856C 15.1926 0.67299 15.1741 0.63087 15.1523 0.584655C 15.1109 0.49729 15.0413 0.362812 14.9601 0.233242C 14.8205 0.0122017 14.5243 -0.398509 14.0654 -0.49029L 13.8693 0.490291C 13.8433 0.494181 13.8812 0.485356 13.942 0.546359C 14.0086 0.607494 14.0553 0.672599 14.1146 0.767234C 14.173 0.8587 14.2139 0.93944 14.2482 1.01203C 14.2642 1.0458 14.2747 1.06984 14.2833 1.09015C 14.2872 1.09912 14.2893 1.10436 14.2913 1.1093C 14.2921 1.1112 14.2923 1.1118 14.2927 1.11282C 14.2928 1.11305 14.2928 1.11306 14.2928 1.11293C 14.2928 1.11301 14.2926 1.11252 14.2926 1.11256C 14.2927 1.11265 14.2925 1.11222 14.2925 1.11227C 14.2925 1.11221 14.2925 1.11212 14.2925 1.11209C 14.2924 1.112 14.2924 1.1119 14.7584 0.930675ZM 13.9501 -0.499702L 9.90165 -0.360102L 9.93611 0.639305L 13.9845 0.499704L 13.9501 -0.499702ZM 9.91888 -0.360399L 9.73275 -0.360399L 9.73275 0.639601L 9.91888 0.639601L 9.91888 -0.360399ZM 9.73275 -0.360399C 9.01363 -0.360399 5.1092 -0.225057 2.39914 2.485L 3.10624 3.19211C 5.51489 0.783462 9.05585 0.639601 9.73275 0.639601L 9.73275 -0.360399ZM 2.39914 2.485C 0.914408 3.985 0.180448 5.8569 -0.148814 7.29968C -0.314084 8.03022 -0.390359 8.68797 -0.422537 9.15156C -0.43874 9.38728 -0.444876 9.58558 -0.446679 9.7221C -0.448436 9.86433 -0.446314 9.96885 -0.446267 9.95821L 0.553733 9.95821C 0.553733 9.80481 0.429792 5.86856 3.10624 3.19211L 2.39914 2.485ZM -0.446267 9.95821L -0.446267 14.0066L 0.553733 14.0066L 0.553733 9.95821L -0.446267 9.95821ZM -0.299821 13.6531C -0.482192 13.8355 -0.512105 14.0596 -0.496136 14.2193C -0.47846 14.3466 -0.425654 14.4907 -0.393481 14.556L 0.500946 14.1088C 0.488453 14.0838 0.495852 14.0893 0.498901 14.1198C 0.500801 14.1388 0.501781 14.1759 0.488208 14.2227C 0.473637 14.2731 0.445923 14.3216 0.407286 14.3602L -0.299821 13.6531ZM 4.22305 4.26238C 6.16562 2.31982 9.14685 2.17521 9.73275 2.17521L 9.73275 1.17521C 9.10877 1.17521 5.76141 1.30981 3.51594 3.55528L 4.22305 4.26238ZM 9.73275 2.17521L 13.1762 2.17521L 13.1762 1.17521L 9.73275 1.17521L 9.73275 2.17521ZM 12.6762 1.67521L 12.6762 4.97911L 13.6762 4.97911L 13.6762 1.67521L 12.6762 1.67521ZM 12.6762 4.97911C 12.6762 5.04587 12.7983 8.37261 10.5891 10.5819L 11.2962 11.289C 12.5493 10.0201 13.1669 8.41398 13.4377 7.19246C 13.7092 5.94263 13.6763 4.96557 13.6762 4.97911L 12.6762 4.97911ZM 10.5891 10.5819C 8.6465 12.5244 5.66527 12.669 5.07938 12.669L 5.07938 13.669C 5.70335 13.669 9.05071 13.5344 11.2962 11.289L 10.5891 10.5819ZM 5.07938 12.669L 2.79922 12.669L 2.79922 13.669L 5.07938 13.669L 5.07938 12.669ZM 3.15278 13.5226L 11.6219 5.05346L 10.9148 4.34635L 2.44567 12.8155L 3.15278 13.5226ZM 11.6219 5.05346C 12.1429 4.53246 12.1429 3.70401 11.6219 3.18301L 10.9148 3.89012C 11.0453 4.02059 11.0453 4.21588 10.9148 4.34635L 11.6219 5.05346ZM 11.6219 3.18301C 11.1009 2.66201 10.2725 2.66201 9.75146 3.18301L 10.4586 3.89012C 10.589 3.75964 10.7843 3.75964 10.9148 3.89012L 11.6219 3.18301ZM 9.75146 3.18301L 1.28233 11.6521L 1.98943 12.3593L 10.4586 3.89012L 9.75146 3.18301ZM 2.13588 12.0057L 2.13588 9.86515L 1.13588 9.86515L 1.13588 12.0057L 2.13588 12.0057ZM 2.13588 9.86515C 2.13588 9.80205 2.05927 6.42616 4.22305 4.26238L 3.51594 3.55528C 2.28612 4.80094 1.66878 6.40614 1.39231 7.63257C 1.25346 8.25452 1.18754 8.81613 1.15902 9.20566C 1.13021 9.60889 1.13584 9.87053 1.13588 9.86515L 2.13588 9.86515Z"/>
<path id="path6_fill" d="M 12.0068 2.69896C 9.494 0.186134 5.02676 0 5.02676 0L 0.838727 0C 0.373389 0 0.00111919 0.372269 0.00111919 0.837607L 0.00111919 4.88604C 0.00111919 5.07218 -0.138481 9.21368 2.70008 12.0522C 5.25943 14.6116 8.98213 14.7512 9.68013 14.7512L 13.0306 14.7512L 13.0306 30.2469C 13.0306 30.6192 13.2632 30.9449 13.6355 31.038C 14.1474 31.1311 14.5662 30.7588 14.5662 30.2469L 14.5662 13.9601C 14.5662 13.9601 14.6592 13.9601 14.7058 13.9601L 14.7058 9.91168C 14.7058 9.67901 14.8454 5.53751 12.0068 2.69896ZM 13.0771 9.86515L 13.0771 12.0057L 4.60796 3.53656C 4.28222 3.21083 3.77035 3.21083 3.44461 3.53656C 3.11888 3.8623 3.11888 4.37417 3.44461 4.6999L 11.9138 13.169L 9.6336 13.169C 9.02866 13.169 5.9109 13.076 3.77035 10.9354C 1.44366 8.60874 1.53673 5.02564 1.53673 4.93257L 1.53673 1.67521L 4.98023 1.67521C 5.58517 1.67521 8.70292 1.76828 10.7969 3.90883C 13.1702 6.23552 13.0771 9.81861 13.0771 9.86515Z"/>
<path id="path7_stroke" d="M 5.02676 0L 5.04758 -0.499567L 5.03717 -0.5L 5.02676 -0.5L 5.02676 0ZM 13.0306 14.7512L 13.5306 14.7512L 13.5306 14.2512L 13.0306 14.2512L 13.0306 14.7512ZM 13.6355 31.038L 13.5142 31.5231L 13.53 31.527L 13.5461 31.5299L 13.6355 31.038ZM 14.5662 13.9601L 14.5662 13.4601L 14.0662 13.4601L 14.0662 13.9601L 14.5662 13.9601ZM 14.7058 13.9601L 14.7058 14.4601L 15.2058 14.4601L 15.2058 13.9601L 14.7058 13.9601ZM 13.0771 12.0057L 12.7235 12.3593L 13.5771 13.2128L 13.5771 12.0057L 13.0771 12.0057ZM 11.9138 13.169L 11.9138 13.669L 13.1209 13.669L 12.2673 12.8155L 11.9138 13.169ZM 1.53673 1.67521L 1.53673 1.17521L 1.03673 1.17521L 1.03673 1.67521L 1.53673 1.67521ZM 10.7969 3.90883L 10.4394 4.25856L 10.4469 4.26587L 10.7969 3.90883ZM 12.3604 2.3454C 11.0232 1.02354 9.15693 0.291324 7.69668 -0.0776687C 6.95967 -0.262913 6.29228 -0.369991 5.82546 -0.427865C 5.5888 -0.457107 5.39337 -0.475271 5.26284 -0.485554C 5.19606 -0.490798 5.14203 -0.494348 5.10714 -0.496419C 5.08897 -0.497495 5.07403 -0.498292 5.06476 -0.498758C 5.05977 -0.499009 5.05546 -0.499213 5.05295 -0.499329C 5.05151 -0.499395 5.05017 -0.499455 5.04945 -0.499486C 5.049 -0.499506 5.04853 -0.499526 5.04831 -0.499536C 5.04815 -0.499542 5.04797 -0.49955 5.04789 -0.499553C 5.04772 -0.49956 5.04758 -0.499567 5.02676 0C 5.00594 0.499567 5.00583 0.499562 5.00573 0.499558C 5.00572 0.499557 5.00564 0.499554 5.00562 0.499553C 5.00557 0.499551 5.00561 0.499552 5.0057 0.499557C 5.00607 0.499572 5.00635 0.499585 5.00707 0.499618C 5.00887 0.4997 5.011 0.499801 5.01454 0.49998C 5.02233 0.500371 5.03278 0.500926 5.04794 0.501827C 5.07972 0.503709 5.12412 0.506612 5.1844 0.511365C 5.30799 0.521078 5.48119 0.537087 5.70259 0.564558C 6.15191 0.620109 6.75838 0.716617 7.45229 0.892008C 8.85385 1.24429 10.4776 1.86155 11.6533 3.05251L 12.3604 2.3454ZM 5.02676 -0.5L 0.838727 -0.5L 0.838727 0.5L 5.02676 0.5L 5.02676 -0.5ZM 0.838727 -0.5C 0.0972478 -0.5 -0.498881 0.0961263 -0.498881 0.837607L 0.501119 0.837607C 0.501119 0.648412 0.649531 0.5 0.838727 0.5L 0.838727 -0.5ZM -0.498881 0.837607L -0.498881 4.88604L 0.501119 4.88604L 0.501119 0.837607L -0.498881 0.837607ZM -0.498881 4.88604C -0.498922 4.86918 -0.501051 4.99113 -0.499295 5.1373C -0.497495 5.27823 -0.491373 5.4802 -0.475184 5.71911C -0.443013 6.18928 -0.366769 6.85143 -0.201526 7.58486C 0.127769 9.03368 0.861794 10.9058 2.34652 12.4058L 3.05363 11.6987C 0.37744 9.02249 0.501119 5.08687 0.501119 4.88604L -0.498881 4.88604ZM 2.34652 12.4058C 5.05658 15.1158 8.96102 15.2512 9.68013 15.2512L 9.68013 14.2512C 9.00323 14.2512 5.46228 14.1073 3.05363 11.6987L 2.34652 12.4058ZM 9.68013 15.2512L 13.0306 15.2512L 13.0306 14.2512L 9.68013 14.2512L 9.68013 15.2512ZM 12.5306 14.7512L 12.5306 30.2469L 13.5306 30.2469L 13.5306 14.7512L 12.5306 14.7512ZM 12.5306 30.2469C 12.5306 30.832 12.9037 31.3704 13.5142 31.5231L 13.7568 30.5529C 13.6228 30.5194 13.5306 30.4064 13.5306 30.2469L 12.5306 30.2469ZM 13.5461 31.5299C 14.3811 31.6817 15.0662 31.054 15.0662 30.2469L 14.0662 30.2469C 14.0662 30.3635 14.0203 30.4441 13.9663 30.4906C 13.9143 30.5355 13.8352 30.5661 13.7249 30.5461L 13.5461 31.5299ZM 15.0662 30.2469L 15.0662 13.9601L 14.0662 13.9601L 14.0662 30.2469L 15.0662 30.2469ZM 14.5662 13.9601C 14.5662 14.4601 14.5662 14.4601 14.5662 14.4601C 14.5662 14.4601 14.5662 14.4601 14.5662 14.4601C 14.5662 14.4601 14.5662 14.4601 14.5662 14.4601C 14.5662 14.4601 14.5662 14.4601 14.5662 14.4601C 14.5663 14.4601 14.5664 14.4601 14.5664 14.4601C 14.5666 14.4601 14.5669 14.4601 14.5672 14.4601C 14.5679 14.4601 14.5689 14.4601 14.5703 14.4601C 14.5729 14.4601 14.5767 14.4601 14.5814 14.4601C 14.5909 14.4601 14.604 14.4601 14.6185 14.4601C 14.6476 14.4601 14.6825 14.4601 14.7058 14.4601L 14.7058 13.4601C 14.6825 13.4601 14.6476 13.4601 14.6185 13.4601C 14.604 13.4601 14.5909 13.4601 14.5814 13.4601C 14.5767 13.4601 14.5729 13.4601 14.5703 13.4601C 14.5689 13.4601 14.5679 13.4601 14.5672 13.4601C 14.5669 13.4601 14.5666 13.4601 14.5664 13.4601C 14.5664 13.4601 14.5663 13.4601 14.5662 13.4601C 14.5662 13.4601 14.5662 13.4601 14.5662 13.4601C 14.5662 13.4601 14.5662 13.4601 14.5662 13.4601C 14.5662 13.4601 14.5662 13.4601 14.5662 13.4601C 14.5662 13.4601 14.5662 13.4601 14.5662 13.9601ZM 15.2058 13.9601L 15.2058 9.91168L 14.2058 9.91168L 14.2058 13.9601L 15.2058 13.9601ZM 15.2058 9.91168C 15.2058 9.6946 15.3616 5.34659 12.3604 2.3454L 11.6533 3.05251C 14.3292 5.72844 14.2058 9.66343 14.2058 9.91168L 15.2058 9.91168ZM 12.5771 9.86515L 12.5771 12.0057L 13.5771 12.0057L 13.5771 9.86515L 12.5771 9.86515ZM 13.4306 11.6521L 4.96151 3.18301L 4.2544 3.89012L 12.7235 12.3593L 13.4306 11.6521ZM 4.96151 3.18301C 4.44051 2.66201 3.61206 2.66201 3.09106 3.18301L 3.79817 3.89012C 3.92864 3.75964 4.12393 3.75964 4.2544 3.89012L 4.96151 3.18301ZM 3.09106 3.18301C 2.57006 3.70401 2.57006 4.53246 3.09106 5.05346L 3.79817 4.34635C 3.66769 4.21588 3.66769 4.02059 3.79817 3.89012L 3.09106 3.18301ZM 3.09106 5.05346L 11.5602 13.5226L 12.2673 12.8155L 3.79817 4.34635L 3.09106 5.05346ZM 11.9138 12.669L 9.6336 12.669L 9.6336 13.669L 11.9138 13.669L 11.9138 12.669ZM 9.6336 12.669C 9.04429 12.669 6.1118 12.5698 4.1239 10.5819L 3.4168 11.289C 5.71 13.5822 9.01303 13.669 9.6336 13.669L 9.6336 12.669ZM 4.1239 10.5819C 1.96043 8.4184 2.03673 5.04325 2.03673 4.93257L 1.03673 4.93257C 1.0367 4.91533 1.03106 5.2091 1.05983 5.61835C 1.08835 6.01449 1.15423 6.58052 1.29305 7.20536C 1.56956 8.43786 2.18697 10.0433 3.4168 11.289L 4.1239 10.5819ZM 2.03673 4.93257L 2.03673 1.67521L 1.03673 1.67521L 1.03673 4.93257L 2.03673 4.93257ZM 1.53673 2.17521L 4.98023 2.17521L 4.98023 1.17521L 1.53673 1.17521L 1.53673 2.17521ZM 4.98023 2.17521C 5.57169 2.17521 8.49952 2.27537 10.4395 4.25848L 11.1544 3.55919C 8.90633 1.2612 5.59864 1.17521 4.98023 1.17521L 4.98023 2.17521ZM 10.4469 4.26587C 12.6539 6.42958 12.5771 9.8035 12.5771 9.86515L 13.5771 9.86515C 13.5771 9.87053 13.5828 9.60842 13.5532 9.20471C 13.5239 8.81498 13.4563 8.2527 13.3143 7.63031C 13.0317 6.40339 12.4013 4.79743 11.147 3.5518L 10.4469 4.26587Z"/>
<path id="path8_fill" d="M 1.07028 2.14055C 1.66137 2.14055 2.14055 1.66137 2.14055 1.07028C 2.14055 0.479179 1.66137 0 1.07028 0C 0.479179 0 0 0.479179 0 1.07028C 0 1.66137 0.479179 2.14055 1.07028 2.14055Z"/>
</defs>
</svg>
