<svg width="65" height="47" viewBox="0 0 65 47" version="1.1" xmlns="http://www.w3.org/2000/svg" xmlns:xlink="http://www.w3.org/1999/xlink">
<title>Group</title>
<desc>Created using Figma</desc>
<g id="Canvas" transform="translate(-6674 -33)">
<g id="Group">
<g id="Group">
<g id="Group">
<g id="Vector">
<use xlink:href="#path0_fill" transform="translate(6674 35.9047)" fill="url(#paint0_linear)"/>
</g>
</g>
<g id="Vector">
<use xlink:href="#path1_fill" transform="translate(6728.46 48.8018)" fill="url(#paint1_linear)"/>
</g>
<g id="Vector">
<use xlink:href="#path2_fill" transform="translate(6682.04 48.8948)" fill="url(#paint2_linear)"/>
</g>
<g id="Vector">
<use xlink:href="#path3_fill" transform="translate(6689.47 33.093)" fill="url(#paint3_linear)"/>
</g>
<g id="Vector">
<use xlink:href="#path4_fill" transform="translate(6721.17 33)" fill="url(#paint4_linear)"/>
</g>
</g>
</g>
</g>
<defs>
<linearGradient id="paint0_linear" x1="0" y1="0" x2="1" y2="0" gradientUnits="userSpaceOnUse" gradientTransform="matrix(64.9824 0.0451515 -0.0450932 65.0663 0.0282846 -10.5369)">
<stop offset="0.00264423" stop-color="#EF612F"/>
<stop offset="0.9987" stop-color="#EFA215"/>
</linearGradient>
<linearGradient id="paint1_linear" x1="0" y1="0" x2="1" y2="0" gradientUnits="userSpaceOnUse" gradientTransform="matrix(2.53408 0.00176075 -0.00175848 2.53736 -0.020566 0.0171283)">
<stop offset="0.00264423" stop-color="#EF612F"/>
<stop offset="0.9987" stop-color="#EFA215"/>
</linearGradient>
<linearGradient id="paint2_linear" x1="0" y1="0" x2="1" y2="0" gradientUnits="userSpaceOnUse" gradientTransform="matrix(2.53417 0.00176081 -0.00175854 2.53745 -0.0203816 0.0189926)">
<stop offset="0.00264423" stop-color="#EF612F"/>
<stop offset="0.9987" stop-color="#EFA215"/>
</linearGradient>
<linearGradient id="paint3_linear" x1="0" y1="0" x2="1" y2="0" gradientUnits="userSpaceOnUse" gradientTransform="matrix(2.53417 0.00176081 -0.00175854 2.53745 -0.0214294 -0.00876062)">
<stop offset="0.00264423" stop-color="#EF612F"/>
<stop offset="0.9987" stop-color="#EFA215"/>
</linearGradient>
<linearGradient id="paint4_linear" x1="0" y1="0" x2="1" y2="0" gradientUnits="userSpaceOnUse" gradientTransform="matrix(2.53404 0.00176072 -0.00175844 2.53731 -0.0301255 0.00459126)">
<stop offset="0.00264423" stop-color="#EF612F"/>
<stop offset="0.9987" stop-color="#EFA215"/>
</linearGradient>
<path id="path0_fill" d="M 46.6133 29.0243C 46.2884 29.3496 45.917 29.489 45.4993 29.489C 45.0815 29.489 44.6638 29.3031 44.3853 29.0243L 41.6932 26.3751C 41.3683 26.0498 40.9041 25.9104 40.4399 26.0963C 39.4652 26.4681 39.2795 27.5835 39.9294 28.2342L 42.5751 30.8833L 42.6679 30.9762C 43.0857 31.3945 43.2249 31.9522 43.0857 32.5099C 42.8536 33.3 42.2038 33.8113 41.4611 33.8113C 40.9969 33.8113 40.5792 33.6718 40.2079 33.3465L 37.6086 30.8833C 36.9587 30.2791 35.8448 30.465 35.5198 31.441C 35.3806 31.8593 35.5198 32.3705 35.8448 32.6494L 38.6297 35.2985C 38.9082 35.5774 39.0475 35.9027 39.0475 36.2745C 39.0475 36.8787 38.6761 37.3899 38.0727 37.6223C 37.6086 37.8082 37.098 37.6688 36.7267 37.297L 35.3806 35.9492C 35.0557 35.6238 34.5915 35.4844 34.1274 35.6703C 33.524 35.9027 33.2455 36.3675 33.2455 36.8787C 33.2455 37.204 33.3847 37.5294 33.6168 37.7617L 34.9629 39.1095C 35.1021 39.249 35.1949 39.3884 35.2414 39.5743C 35.427 40.0855 35.2878 40.5968 34.9164 40.9686C 34.6844 41.201 34.3594 41.3404 33.9881 41.3404C 33.6168 41.3404 33.2919 41.201 33.0598 40.9686L 31.5745 39.4349C 31.8994 38.8307 32.0851 38.1335 32.0851 37.3899C 32.0851 35.0197 30.1356 33.0677 27.7684 33.0677C 27.7684 30.6974 25.8189 28.7454 23.4517 28.7454C 23.4517 26.3751 21.5022 24.4231 19.135 24.4231C 18.3923 24.4231 17.6961 24.609 17.0927 24.9344L 13.1473 20.9839L 24.3336 9.78319L 26.3295 11.7817C 26.5616 12.014 26.8401 12.107 27.165 12.107L 28.8359 12.107L 23.7766 17.1264C 23.3124 17.5912 22.9411 18.1953 22.7554 18.846C 22.2449 20.7515 23.0339 22.6106 24.7513 23.5401C 24.9834 23.6795 25.1691 23.7725 25.4012 23.8189C 26.8865 24.2372 28.4182 23.8654 29.4858 22.7965L 33.7096 18.5672L 38.3512 18.6136L 46.5204 26.7005C 46.8454 27.0258 46.9846 27.3976 46.9846 27.8159C 47.0774 28.3271 46.8918 28.7454 46.6133 29.0243ZM 25.9117 37.4829C 25.9117 37.0181 26.0974 36.5998 26.3759 36.2745C 26.4223 36.228 26.4687 36.1816 26.5151 36.1351C 26.8401 35.8562 27.2578 35.6703 27.722 35.6703C 28.6967 35.6703 29.5322 36.4604 29.5322 37.4829C 29.5322 37.9476 29.3465 38.4124 29.0216 38.7377C 28.6967 39.0631 28.2325 39.249 27.7684 39.249C 26.7472 39.2954 25.9117 38.5054 25.9117 37.4829ZM 23.4053 34.9267C 22.4305 34.9267 21.595 34.1366 21.595 33.1141C 21.595 32.1381 22.3841 31.3016 23.4053 31.3016C 24.38 31.3016 25.2155 32.0917 25.2155 33.1141C 25.2155 33.5789 25.0298 33.9972 24.7513 34.3225C 24.7049 34.369 24.6585 34.4155 24.6121 34.4619C 24.2872 34.7873 23.8694 34.9267 23.4053 34.9267ZM 17.2319 28.7919C 17.2319 27.8159 18.021 26.9793 19.0422 26.9793C 20.0169 26.9793 20.8524 27.7694 20.8524 28.7919C 20.8524 29.7679 20.0633 30.6044 19.0422 30.6044C 18.0674 30.6044 17.2319 29.7679 17.2319 28.7919ZM 38.4905 12.107C 38.8154 12.107 39.1403 11.9676 39.4188 11.7352L 41.1362 10.0156L 51.6726 20.6121L 47.6344 24.2837L 39.8365 16.5687C 39.558 16.2898 39.1403 16.1504 38.769 16.1969L 33.199 16.1504C 32.8741 16.1504 32.5028 16.2898 32.2707 16.5222L 27.5827 21.1698C 27.3042 21.4487 26.8865 21.6346 26.5151 21.6346C 26.0974 21.6346 25.7261 21.4951 25.4476 21.1698C 25.0762 20.798 24.937 20.2868 25.0298 19.7755C 25.0762 19.4502 25.2619 19.1713 25.494 18.9854L 32.3636 12.107L 38.4905 12.107ZM 64.6227 12.7112L 52.6009 0.673902C 52.0904 0.162666 51.3013 0.162666 50.7907 0.673902C 50.2801 1.18514 50.2801 1.97523 50.7907 2.48647L 61.9305 13.6407L 55.4323 20.1473C 55.2467 20.3332 54.9217 20.3332 54.6897 20.1473L 41.8324 7.27349C 41.6468 7.08759 41.6468 6.76226 41.8324 6.52988L 46.1955 2.16113C 46.7061 1.6499 46.7061 0.859806 46.1955 0.34857C 45.7314 -0.11619 44.9423 -0.11619 44.4317 0.34857L 40.0686 4.71731C 39.1403 5.60036 38.9546 6.94816 39.4188 8.06358L 37.9335 9.55081L 32.2243 9.55081L 31.7602 9.55081L 27.5827 9.55081L 25.7261 7.69177C 25.8189 7.41292 25.8189 7.18054 25.8189 6.90168C 25.8189 6.06512 25.494 5.3215 24.937 4.76379L 20.7131 0.487998C 20.2026 -0.0232379 19.4135 -0.0232379 18.9029 0.487998C 18.3923 0.999234 18.3923 1.78933 18.9029 2.30056L 23.1268 6.57635C 23.266 6.71578 23.266 6.85521 23.266 6.94816C 23.266 7.04111 23.266 7.18054 23.1268 7.31997L 22.7554 7.69177L 10.2231 20.1938C 10.0839 20.3332 9.94463 20.3332 9.89821 20.3332C 9.80538 20.3332 9.66613 20.3332 9.52689 20.1938L 3.02864 13.6872L 14.3077 2.39351C 14.8183 1.88228 14.8183 1.09219 14.3077 0.58095C 13.7972 0.069714 13.0081 0.069714 12.4975 0.58095L 0.382932 12.6647C -0.127644 13.1759 -0.127644 13.966 0.382932 14.4773L 7.76308 21.9134C 8.36649 22.5176 9.15556 22.7965 9.89821 22.7965C 10.2695 22.7965 10.5945 22.75 10.9658 22.6106L 15.1432 26.7934C 14.8183 27.3976 14.6326 28.0947 14.6326 28.8383C 14.6326 31.2551 16.5821 33.2071 18.9493 33.2071C 18.9493 35.5774 20.8988 37.5294 23.266 37.5758C 23.266 39.9926 25.2155 41.9446 27.5827 41.9446C 28.3254 41.9446 29.0216 41.7587 29.625 41.4333L 31.1103 42.9206C 31.7602 43.5712 32.6421 44.036 33.5704 44.0825C 34.7308 44.1754 35.7983 43.7571 36.6338 42.967C 37.3301 42.2699 37.7014 41.3869 37.7478 40.4109C 38.6761 40.3644 39.6045 39.9926 40.3471 39.249C 41.0898 38.5054 41.5075 37.4829 41.5075 36.4139C 42.6215 36.3675 43.6427 35.8562 44.3853 35.0661C 45.128 34.2296 45.4993 33.2071 45.4993 32.1846C 46.5669 32.1381 47.5416 31.7199 48.3307 30.9762C 49.1197 30.1862 49.5375 29.1637 49.5375 28.0483C 49.5375 27.3976 49.3982 26.7469 49.0733 26.1892L 53.2508 22.3782C 53.7613 22.75 54.3647 22.9359 55.0146 22.9359C 55.8036 22.9359 56.5927 22.657 57.1497 22.0529L 64.5763 14.6632C 65.1333 14.0125 65.1333 13.2224 64.6227 12.7112Z"/>
<path id="path1_fill" d="M 1.25574 0C 1.95198 0 2.50898 0.557712 2.50898 1.25485C 2.50898 1.95199 1.95198 2.5097 1.25574 2.5097C 0.559505 2.5097 0.00251396 1.95199 0.00251396 1.25485C -0.043902 0.604188 0.559505 0 1.25574 0Z"/>
<path id="path2_fill" d="M 1.25323 3.54584e-07C 1.94947 3.54584e-07 2.50646 0.557712 2.50646 1.25485C 2.50646 1.95199 1.94947 2.5097 1.25323 2.5097C 0.556992 2.5097 -3.54126e-07 1.95199 -3.54126e-07 1.25485C -3.54126e-07 0.604189 0.556992 3.54584e-07 1.25323 3.54584e-07Z"/>
<path id="path3_fill" d="M 1.25323 1.38509e-09C 1.94947 1.38509e-09 2.50646 0.557712 2.50646 1.25485C 2.50646 1.95199 1.94947 2.5097 1.25323 2.5097C 0.556992 2.5097 -3.54126e-07 1.95199 -3.54126e-07 1.25485C -3.54126e-07 0.557712 0.556992 1.38509e-09 1.25323 1.38509e-09Z"/>
<path id="path4_fill" d="M 1.25575 0C 1.95199 0 2.50898 0.557712 2.50898 1.25485C 2.50898 1.95199 1.95199 2.5097 1.25575 2.5097C 0.559506 2.5097 0.00251184 1.95199 0.00251184 1.25485C -0.0439042 0.557712 0.559506 0 1.25575 0Z"/>
</defs>
</svg>
