<svg width="15" height="23" viewBox="0 0 15 23" version="1.1" xmlns="http://www.w3.org/2000/svg" xmlns:xlink="http://www.w3.org/1999/xlink">
<title>sound_off</title>
<desc>Created using Figma</desc>
<g id="Canvas" transform="translate(-6349 1112)">
<g id="sound_off">
<g id="Line">
<use xlink:href="#path0_stroke" transform="matrix(0.5 -0.866025 -0.866025 -0.5 6349 -1090.35)" fill="#FFFFFF"/>
</g>
<g id="Sound">
<g id="icone_sound_on">
<g id="Vector">
<use xlink:href="#path1_fill" transform="translate(6355.61 -1110)" fill="#FFFFFF"/>
</g>
<g id="Vector">
<use xlink:href="#path2_fill" transform="translate(6352.97 -1107.47)" fill="#FFFFFF"/>
</g>
<g id="Vector">
<use xlink:href="#path3_fill" transform="translate(6350 -1104.89)" fill="#FFFFFF"/>
</g>
</g>
</g>
</g>
</g>
<defs>
<path id="path0_stroke" d="M 0 0L 25 0L 25 -2L 0 -2L 0 0Z"/>
<path id="path1_fill" d="M 5.38722 9.94954C 5.31507 13.0464 4.10756 16.0471 1.67166 18.5653C 1.58623 18.6522 1.50079 18.7409 1.40776 18.8186C 1.09639 19.0737 0.678699 19.0571 0.399606 18.7853C 0.120512 18.5135 0.0996275 18.1049 0.365431 17.8036C 0.655916 17.4782 0.976778 17.1768 1.25587 16.8422C 3.25889 14.446 4.09237 11.6912 3.84745 8.6239C 3.62152 5.75999 2.40642 3.34351 0.31227 1.33194C -0.141494 0.895602 -0.0940293 0.322451 0.410997 0.0783996C 0.722367 -0.0713593 1.02804 -0.00849756 1.33371 0.283625C 2.75766 1.637 3.81518 3.22519 4.51956 5.03523C 5.09293 6.50509 5.37772 8.02671 5.38722 9.94954Z"/>
<path id="path2_fill" d="M 4.32907 6.66604C 4.25313 9.58541 3.3456 11.7763 1.5799 13.6252C 1.22677 13.995 0.790089 14.0338 0.46353 13.7398C 0.127479 13.4385 0.136972 13.0021 0.509096 12.6268C 3.17662 9.94224 3.40256 6.10398 1.89317 3.34546C 1.46789 2.56708 0.9097 1.89039 0.260381 1.27656C -0.123136 0.914185 -0.0737723 0.372464 0.347716 0.115471C 0.66668 -0.0786612 1.01033 -0.0287415 1.32739 0.270776C 2.58426 1.45591 3.4747 2.86475 3.92467 4.5084C 4.1487 5.33854 4.24363 6.20012 4.32907 6.66604Z"/>
<path id="path3_fill" d="M 3.20816 4.34768C 3.15311 6.01352 2.6196 7.35026 1.55259 8.47437C 1.19376 8.85154 0.732397 8.88852 0.411534 8.58161C 0.0906715 8.27654 0.111556 7.86055 0.466593 7.48707C 2.18862 5.68072 2.13546 3.08675 0.333692 1.34511C 0.132441 1.15468 -0.0251429 0.9513 0.00333607 0.666573C 0.031815 0.372602 0.189398 0.152586 0.476086 0.0508981C 0.770369 -0.0526389 1.04377 0.000978625 1.27539 0.219146C 2.20191 1.08627 2.79997 2.13273 3.06577 3.35484C 3.14741 3.72461 3.17399 4.10733 3.20816 4.34768Z"/>
</defs>
</svg>
