<svg width="44" height="44" viewBox="0 0 44 44" version="1.1" xmlns="http://www.w3.org/2000/svg" xmlns:xlink="http://www.w3.org/1999/xlink">
<title>Instagram</title>
<desc>Created using Figma</desc>
<g id="Canvas" transform="translate(-7295 -2356)">
<g id="Instagram">
<g id="Vector">
<use xlink:href="#path0_fill" transform="translate(7304.29 2365.72)" fill="#FFA515"/>
</g>
<g id="Vector">
<use xlink:href="#path1_fill" transform="translate(7295.13 2356.54)" fill="#FFA515"/>
</g>
<g id="Vector">
<use xlink:href="#path2_fill" transform="translate(7312.01 2372.96)" fill="#FFA515"/>
</g>
</g>
</g>
<defs>
<path id="path0_fill" d="M 21.0793 0.650441C 20.1187 0.154774 19.0649 0.0163853 17.9967 0.0136718C 14.2828 0.00553131 10.5681 0.0154808 6.85417 0.000104298C 5.64575 -0.00532271 4.49251 0.200903 3.41797 0.756267C 1.30776 1.8471 0.0695009 3.5367 0.0215623 5.95806C -0.0209492 8.0764 0.0125173 10.1975 0.0125173 12.3167C 0.0152308 12.3167 0.0188488 12.3167 0.0215623 12.3167C 0.0215623 14.3392 0.0396523 16.3616 0.0152307 18.3841C -0.00105031 19.7354 0.335424 20.9529 1.17209 22.0274C 1.96895 23.0495 2.94853 23.8066 4.18498 24.2263C 4.99632 24.5021 5.83118 24.6089 6.67869 24.6116C 10.4125 24.6224 14.1463 24.6152 17.88 24.6279C 19.2015 24.6324 20.4334 24.3466 21.5849 23.6781C 23.5449 22.5412 24.6249 20.8715 24.6376 18.593C 24.6611 14.3636 24.6701 10.1332 24.634 5.90379C 24.6113 3.39832 23.213 1.75122 21.0793 0.650441ZM 12.3653 18.5008C 8.61704 18.5035 5.56344 15.4779 5.56525 11.7641C 5.56706 8.0963 8.62789 5.08521 12.3572 5.0825C 16.0964 5.07978 19.1536 8.09358 19.1581 11.7858C 19.1626 15.4698 16.0991 18.4981 12.3653 18.5008ZM 19.9432 6.01323C 19.1735 6.01233 18.5204 5.33124 18.5222 4.52985C 18.524 3.71218 19.188 3.02747 19.9676 3.04104C 20.7401 3.05461 21.3805 3.7366 21.3741 4.53889C 21.3678 5.34209 20.7147 6.01413 19.9432 6.01323Z"/>
<path id="path1_fill" d="M 21.5 0C 9.6257 0 0 9.6257 0 21.5C 0 33.3743 9.6257 43 21.5 43C 33.3743 43 43 33.3743 43 21.5C 43 9.6257 33.3734 0 21.5 0ZM 30.716 35.2882C 29.5139 35.7631 28.272 35.9711 26.9858 35.9684C 23.252 35.9621 19.5182 35.9657 15.7836 35.9503C 14.6909 35.9458 13.6055 35.8291 12.5771 35.4329C 9.86811 34.3882 8.0175 32.5241 7.2541 29.6866C 7.08948 29.0761 7.03974 28.4194 7.03702 27.7827C 7.01803 23.6699 7.02707 19.5562 7.02798 15.4435C 7.02798 13.6896 7.40154 12.0362 8.48513 10.6225C 9.96128 8.69678 11.9123 7.52183 14.3183 7.15189C 14.9207 7.05963 15.5384 7.03793 16.149 7.03612C 19.776 7.02798 23.4031 7.02798 27.0301 7.04064C 28.9956 7.04697 30.8516 7.46756 32.4716 8.64703C 34.031 9.78309 35.2122 11.2149 35.6925 13.118C 35.8671 13.8072 35.9413 14.5371 35.953 15.2499C 35.9865 17.3302 35.9648 19.4115 35.9648 21.4928C 35.9666 21.4928 35.9684 21.4928 35.9702 21.4928C 35.9702 23.5831 35.9566 25.6743 35.9729 27.7646C 36.0019 31.2876 33.68 34.1169 30.716 35.2882Z"/>
<path id="path2_fill" d="M 4.64191 7.59684e-07C 2.07855 0.00180976 -0.0045156 2.04508 6.90849e-06 4.55326C 0.00452942 7.06325 2.09574 9.10924 4.65005 9.10291C 7.20798 9.09657 9.28381 7.04607 9.27838 4.53155C 9.27205 2.03965 7.18446 -0.00180824 4.64191 7.59684e-07Z"/>
</defs>
</svg>
