<svg xmlns="http://www.w3.org/2000/svg" viewBox="0 0 1224.49 1224.49"><defs><style>.cls-1{fill:#fff;}</style></defs><title>Fichier 3</title><g id="Calque_2" data-name="Calque 2"><g id="Calque_1-2" data-name="Calque 1"><path class="cls-1" d="M861.2,280.07C833.85,266,803.83,262,773.41,261.94c-105.77-.24-211.55.05-317.32-.39-34.4-.14-67.25,5.73-97.85,21.54-60.09,31.06-95.35,79.19-96.72,148.14-1.2,60.34-.25,120.72-.25,181.08h.26c0,57.59.52,115.19-.18,172.78-.47,38.49,9.11,73.14,32.95,103.74,22.68,29.11,50.58,50.66,85.79,62.62,23.1,7.85,46.88,10.91,71,11,106.32.31,212.65.1,319,.46,37.64.13,72.71-8,105.49-27,55.83-32.39,86.56-79.94,86.92-144.82.67-120.45.92-240.9-.1-361.34C961.8,358.31,922,311.42,861.2,280.07ZM613,788.38c-106.73.07-193.69-86.08-193.65-191.84.05-104.44,87.22-190.19,193.42-190.27,106.47-.09,193.54,85.73,193.68,190.89C806.62,702.07,719.38,788.32,613,788.38Zm215.8-355.6c-21.93,0-40.5-19.41-40.46-42.23,0-23.29,19-42.77,41.16-42.39,22,.39,40.25,19.81,40.06,42.65S850.82,432.81,828.84,432.78Z"/><path class="cls-1" d="M612.24,0C274.11,0,0,274.11,0,612.24s274.11,612.25,612.24,612.25,612.25-274.11,612.25-612.25S950.38,0,612.24,0ZM874.7,1004.91c-34.23,13.52-69.61,19.44-106.22,19.38-106.33-.17-212.66-.08-319-.51-31.11-.13-62-3.45-91.32-14.74C281,979.29,228.32,926.2,206.59,845.39c-4.68-17.39-6.1-36.09-6.18-54.21-.53-117.13-.27-234.26-.27-351.4,0-49.94,10.64-97,41.5-137.29,42-54.85,97.59-88.3,166.12-98.84,17.14-2.63,34.74-3.25,52.13-3.29q154.93-.35,309.86.12c56,.2,108.83,12.16,155,45.75,44.41,32.34,78,73.13,91.72,127.3,5,19.64,7.09,40.41,7.42,60.71.95,59.24.33,118.51.33,177.77h.15c0,59.53-.39,119.07.09,178.6C1025.22,891,959.11,971.56,874.7,1004.91Z"/><path class="cls-1" d="M613,467.67c-73,0-132.31,58.24-132.18,129.67s59.67,129.75,132.41,129.57S745.17,668.34,745,596.74C744.87,525.76,685.41,467.63,613,467.67Z"/></g></g></svg>