<svg width="43" height="41" viewBox="0 0 43 41" version="1.1" xmlns="http://www.w3.org/2000/svg" xmlns:xlink="http://www.w3.org/1999/xlink">
<title>Instagram</title>
<desc>Created using Figma</desc>
<g id="Canvas" transform="translate(-7304 -393)">
<g id="Instagram">
<g id="Vector">
<use xlink:href="#path0_fill" transform="translate(7313.14 401.757)" fill="#E0E0E0"/>
</g>
<g id="Vector">
<use xlink:href="#path1_fill" transform="translate(7304.13 393)" fill="#E0E0E0"/>
</g>
<g id="Vector">
<use xlink:href="#path2_fill" transform="translate(7320.74 408.659)" fill="#E0E0E0"/>
</g>
</g>
</g>
<defs>
<path id="path0_fill" d="M 20.7356 0.620188C 19.7906 0.147575 18.7541 0.0156232 17.7033 0.0130359C 14.05 0.00527404 10.3957 0.0147608 6.74241 9.94474e-05C 5.5537 -0.00507514 4.41926 0.191559 3.36223 0.721092C 1.28644 1.76118 0.0683677 3.37221 0.0212108 5.68094C -0.0206077 7.70075 0.0123132 9.72315 0.0123132 11.7438C 0.0149825 11.7438 0.0185415 11.7438 0.0212108 11.7438C 0.0212108 13.6722 0.0390057 15.6006 0.0149824 17.529C -0.00103319 18.8175 0.329955 19.9783 1.15298 21.0029C 1.93685 21.9774 2.90045 22.6993 4.11674 23.0995C 4.91485 23.3625 5.7361 23.4643 6.5698 23.4669C 10.2427 23.4772 13.9156 23.4703 17.5885 23.4824C 18.8884 23.4867 20.1003 23.2142 21.2329 22.5768C 23.161 21.4928 24.2234 19.9007 24.2358 17.7282C 24.259 13.6955 24.2679 9.66192 24.2323 5.62919C 24.21 3.24025 22.8345 1.66977 20.7356 0.620188ZM 12.1637 17.6403C 8.47654 17.6429 5.47273 14.758 5.47451 11.2169C 5.47629 7.71972 8.48721 4.84869 12.1557 4.8461C 15.8339 4.84352 18.8413 7.71714 18.8457 11.2376C 18.8502 14.7503 15.8366 17.6377 12.1637 17.6403ZM 19.618 5.73354C 18.8608 5.73268 18.2184 5.08327 18.2202 4.31916C 18.222 3.53952 18.8751 2.88666 19.6421 2.89959C 20.4019 2.91253 21.0318 3.5628 21.0256 4.32778C 21.0194 5.09362 20.377 5.73441 19.618 5.73354Z"/>
<path id="path1_fill" d="M 21.1494 0C 9.46875 0 0 9.178 0 20.5C 0 31.822 9.46875 41 21.1494 41C 32.8301 41 42.2989 31.822 42.2989 20.5C 42.2989 9.178 32.8292 0 21.1494 0ZM 30.2151 33.6469C 29.0326 34.0997 27.811 34.298 26.5458 34.2955C 22.8729 34.2894 19.2 34.2929 15.5262 34.2782C 14.4514 34.2739 13.3837 34.1626 12.372 33.7849C 9.70721 32.7888 7.88677 31.0113 7.13582 28.3059C 6.97389 27.7237 6.92495 27.0976 6.92228 26.4904C 6.9036 22.569 6.91249 18.6466 6.91338 14.7252C 6.91338 13.0529 7.28085 11.4764 8.34678 10.1284C 9.79885 8.29228 11.7181 7.17198 14.0848 6.81925C 14.6774 6.73128 15.2851 6.71058 15.8857 6.70886C 19.4536 6.70109 23.0215 6.70109 26.5894 6.71317C 28.5228 6.7192 30.3486 7.12024 31.9421 8.24485C 33.4761 9.32806 34.6381 10.6933 35.1106 12.5078C 35.2823 13.165 35.3552 13.861 35.3668 14.5406C 35.3997 16.5242 35.3784 18.5086 35.3784 20.4931C 35.3801 20.4931 35.3819 20.4931 35.3837 20.4931C 35.3837 22.4862 35.3704 24.4801 35.3864 26.4732C 35.4149 29.8324 33.1309 32.5301 30.2151 33.6469Z"/>
<path id="path2_fill" d="M 4.56622 7.2435e-07C 2.04466 0.00172559 -0.00444197 1.94996 6.79584e-06 4.34148C 0.00445556 6.73473 2.06157 8.68555 4.57423 8.67951C 7.09045 8.67348 9.13244 6.71834 9.1271 4.32078C 9.12087 1.94478 7.06732 -0.00172414 4.56622 7.2435e-07Z"/>
</defs>
</svg>
