<svg xmlns="http://www.w3.org/2000/svg" viewBox="0 0 203.7 93.5"><defs><style>.cls-1{fill:#fff;}</style></defs><title>Fichier 5</title><g id="Calque_2" data-name="Calque 2"><g id="Calque_1-2" data-name="Calque 1"><path class="cls-1" d="M192.69,0H11C5,0,0,5.29,0,11.75v70C0,88.21,5,93.5,11,93.5H192.69c6.06,0,11-5.29,11-11.75v-70C203.7,5.29,198.75,0,192.69,0Zm-128,75.59a5.16,5.16,0,0,1-5.16,5.16H17.87a5.16,5.16,0,0,1-5.16-5.16V17.07a5.16,5.16,0,0,1,10.32,0l0,46.46a5.17,5.17,0,0,0,5.16,5.16h.14a5.14,5.14,0,0,0,5.15-5.16l0-46.45a5.16,5.16,0,0,1,5.16-5.16h.11a5.16,5.16,0,0,1,5.16,5.16v46.5a5.16,5.16,0,0,0,5.16,5.16h0a5.16,5.16,0,0,0,5.16-5.16V17.07a5.16,5.16,0,0,1,5.16-5.16h.11a5.16,5.16,0,0,1,5.16,5.16Zm21.41-.3a5.46,5.46,0,1,1-10.92,0V73.14a5.46,5.46,0,1,1,10.92,0Zm0-23.28a5.46,5.46,0,0,1-10.92,0V17.36a5.46,5.46,0,0,1,10.92,0Zm41.71,23.21a5.54,5.54,0,0,1-5.53,5.53H101.4a5.53,5.53,0,0,1-5.53-5.53V17.43a5.52,5.52,0,0,1,5.53-5.52h20.86a5.53,5.53,0,0,1,5.53,5.52Zm21.15-12.37a5.53,5.53,0,1,1-11.05,0V28.54a5.53,5.53,0,1,1,11.05,0Zm42.39,12.37a5.53,5.53,0,0,1-5.52,5.53H164.94a5.53,5.53,0,0,1-5.52-5.53V17.43a5.52,5.52,0,0,1,5.52-5.52h20.87a5.52,5.52,0,0,1,5.52,5.52Z"/><path class="cls-1" d="M112,23.13a5.52,5.52,0,0,0-5.53,5.51l-.15,34.62a5.53,5.53,0,0,0,11.06.05l.14-34.63A5.52,5.52,0,0,0,112,23.13Z"/><path class="cls-1" d="M175.39,23a5.53,5.53,0,0,0-5.53,5.52V63.28a5.53,5.53,0,0,0,11.05,0l0-34.75A5.54,5.54,0,0,0,175.39,23Z"/></g></g></svg>