<svg width="17" height="20" viewBox="0 0 17 20" version="1.1" xmlns="http://www.w3.org/2000/svg" xmlns:xlink="http://www.w3.org/1999/xlink">
<title>Maison </title>
<desc>Created using Figma</desc>
<g id="Canvas" transform="translate(-7644 2009)">
<g id="Maison ">
<g id="Vector">
<use xlink:href="#path0_fill" transform="translate(7644 -2009)" fill="#FFFFFF"/>
</g>
</g>
</g>
<defs>
<path id="path0_fill" d="M 16.9899 13.9446C 16.9899 15.5 16.9899 17.0554 16.9899 18.6107C 16.9899 19.5339 16.5245 19.9955 15.5938 19.9955C 14.7137 19.9955 13.8437 19.9955 12.9636 19.9955C 11.9924 19.9955 11.5372 19.544 11.527 18.5907C 11.527 16.7142 11.527 14.8477 11.527 12.9712C 11.527 12.0179 11.0617 11.5664 10.1006 11.5664C 9.00807 11.5664 7.90538 11.5664 6.81281 11.5664C 5.94281 11.5664 5.46734 12.038 5.46734 12.901C 5.46734 14.7875 5.46734 16.6841 5.46734 18.5706C 5.46734 19.554 5.0121 19.9955 4.01058 19.9955C 3.12034 19.9955 2.21998 20.0056 1.32974 19.9955C 0.500198 19.9855 0.0146125 19.5139 0.00449617 18.681C 0.00449617 15.52 -0.00562021 12.3591 0.00449617 9.19816C 0.00449617 8.37531 0.307987 7.65281 0.88462 7.0708C 3.10011 4.85312 5.33582 2.64548 7.57154 0.437837C 8.16841 -0.154213 8.83609 -0.144178 9.44307 0.457906C 11.6687 2.65551 13.8842 4.85312 16.0895 7.06076C 16.6965 7.66285 16.9899 8.42549 17 9.27844C 16.9899 10.8338 16.9899 12.3892 16.9899 13.9446Z"/>
</defs>
</svg>
