<svg width="56" height="57" viewBox="0 0 56 57" version="1.1" xmlns="http://www.w3.org/2000/svg" xmlns:xlink="http://www.w3.org/1999/xlink">
<title>Group</title>
<desc>Created using Figma</desc>
<g id="Canvas" transform="translate(-6859 -29)">
<g id="Group">
<g id="Group">
<g id="Vector">
<use xlink:href="#path0_fill" transform="translate(6906.83 65.5752)" fill="url(#paint0_linear)"/>
</g>
<g id="Vector">
<use xlink:href="#path1_fill" transform="translate(6863.86 65.5752)" fill="url(#paint1_linear)"/>
</g>
<g id="Vector">
<use xlink:href="#path2_fill" transform="translate(6859 29)" fill="url(#paint2_linear)"/>
</g>
</g>
</g>
</g>
<defs>
<linearGradient id="paint0_linear" x1="0" y1="0" x2="1" y2="0" gradientUnits="userSpaceOnUse" gradientTransform="matrix(2.25727 0 0 2.21988 0.00672512 -0.00179933)">
<stop offset="0.00264423" stop-color="#EF612F"/>
<stop offset="0.9987" stop-color="#EFA215"/>
</linearGradient>
<linearGradient id="paint1_linear" x1="0" y1="0" x2="1" y2="0" gradientUnits="userSpaceOnUse" gradientTransform="matrix(2.25727 0 0 2.21988 0.0138953 -0.00179933)">
<stop offset="0.00264423" stop-color="#EF612F"/>
<stop offset="0.9987" stop-color="#EFA215"/>
</linearGradient>
<linearGradient id="paint2_linear" x1="0" y1="0" x2="1" y2="0" gradientUnits="userSpaceOnUse" gradientTransform="matrix(56.0371 0 0 55.1091 -0.0378023 0.972273)">
<stop offset="0.00264423" stop-color="#EF612F"/>
<stop offset="0.9987" stop-color="#EFA215"/>
</linearGradient>
<path id="path0_fill" d="M 1.13734 0C 1.78018 0 2.27467 0.486306 2.27467 1.1185C 2.27467 1.7507 1.78018 2.237 1.13734 2.237C 0.494493 2.237 1.50908e-06 1.7507 1.50908e-06 1.1185C 1.50908e-06 0.486306 0.494493 0 1.13734 0Z"/>
<path id="path1_fill" d="M 1.13734 0C 1.78018 0 2.27467 0.486306 2.27467 1.1185C 2.27467 1.7507 1.78018 2.237 1.13734 2.237C 0.494494 2.237 -1.88634e-07 1.7507 -1.88634e-07 1.1185C -1.88634e-07 0.486306 0.494494 0 1.13734 0Z"/>
<path id="path2_fill" d="M 16.8244 34.0951L 16.8244 23.2991C 16.8244 21.3539 17.3684 19.506 18.4563 17.9011C 20.4342 14.9347 23.7968 13.184 27.4561 13.184C 31.1648 13.184 34.5273 14.9347 36.5053 17.9498C 37.5932 19.5546 38.1371 21.4512 38.1371 23.3478L 38.1371 34.0951C 38.1371 36.0403 36.6042 37.6451 34.6262 37.8882L 34.6262 23.6882C 34.6262 23.1532 34.2306 22.6183 33.6867 22.5697C 32.9944 22.4724 32.401 23.0073 32.401 23.6882L 32.401 54.763L 28.445 54.763L 28.445 39.2985C 28.3956 38.6663 27.9011 38.18 27.2583 38.18C 26.6154 38.18 26.1209 38.6663 26.1704 39.2985L 26.1704 54.8116L 22.7089 54.8116L 22.7089 23.7854C 22.7089 23.2505 22.3133 22.7156 21.7694 22.6669C 21.0771 22.5697 20.4837 23.1046 20.4837 23.7854L 20.4837 37.8396C 18.4068 37.6451 16.8244 36.0403 16.8244 34.0951ZM 27.1099 2.38805C 29.5329 2.38805 31.4615 4.33327 31.4615 6.66753C 31.4615 9.00179 29.4835 10.947 27.1099 10.947C 24.6869 10.947 22.7584 9.00179 22.7584 6.66753C 22.7584 4.33327 24.6869 2.38805 27.1099 2.38805ZM 54.851 54.7144L 45.2578 54.7144L 45.2084 27.4327C 45.2084 26.8005 44.7139 26.3142 44.071 26.3142C 43.4282 26.3142 42.9337 26.8005 42.9337 27.4327L 42.9832 54.7144L 39.6701 54.7144L 39.6206 42.6054C 39.6206 42.0218 39.1261 41.4869 38.4833 41.4869C 37.8899 41.4869 37.3459 41.9732 37.3954 42.6054L 37.4448 54.7144L 34.7251 54.7144L 34.7251 40.028C 37.9393 39.7362 40.4612 37.1588 40.4612 34.0464L 40.4612 23.3478C 40.4612 21.6457 40.1151 19.9436 39.3734 18.3875C 41.5986 18.5333 43.6755 19.4087 45.3073 20.9649C 47.038 22.6183 48.027 24.8553 48.027 27.1896L 48.027 33.4629C 48.027 34.0951 48.5215 34.5814 49.1643 34.5814C 49.7577 34.5814 50.3017 34.0951 50.3017 33.4629L 50.3017 27.1409C 50.3017 24.1745 49.1149 21.4025 46.9391 19.3114C 45.7029 18.1443 44.2194 17.2203 42.637 16.6854C 43.7744 15.6155 44.4666 14.108 44.4666 12.4059C 44.4666 9.14768 41.7964 6.52163 38.5327 6.52163L 38.3844 6.52163C 37.4448 6.52163 36.5053 6.76479 35.6647 7.20246C 35.1702 7.44561 34.9229 7.98055 35.0713 8.46685C 35.2691 9.14768 36.0603 9.48809 36.7031 9.14768C 37.247 8.8559 37.791 8.75863 38.4338 8.71C 40.4612 8.71 42.1425 10.3634 42.1425 12.3573C 42.1425 14.3511 40.4612 16.0046 38.4338 16.0046C 38.3844 16.0046 38.3349 16.0046 38.2855 16.0046C 38.236 16.0046 38.1866 16.0046 38.0877 16.0046C 36.4558 13.8162 34.1812 12.2114 31.5604 11.4333C 32.9449 10.2175 33.835 8.46685 33.835 6.52163C 33.835 2.82572 30.6703 -0.140731 26.9121 0.00516009C 23.5496 0.151051 20.7804 2.82572 20.632 6.18122C 20.5331 8.36959 21.5221 10.3148 23.1045 11.5792C 20.7309 12.4059 18.6046 13.9621 17.0717 16.0046C 16.8739 16.0046 16.7255 16.0046 16.5277 16.0046C 16.4288 16.0046 16.3794 16.0046 16.2805 16.0046L 16.231 16.0046C 14.2036 16.0046 12.5223 14.3511 12.5223 12.3573C 12.5223 10.3634 14.2036 8.71 16.231 8.71C 16.8244 8.71 17.4673 8.8559 18.0112 9.14768C 18.5057 9.39083 19.0991 9.29357 19.4453 8.8559C 19.8903 8.32096 19.6925 7.49424 19.0991 7.20246C 18.209 6.71616 17.22 6.473 16.231 6.473C 12.9179 6.473 10.2477 9.09905 10.2477 12.3573C 10.2477 14.108 11.0389 15.7128 12.2751 16.7826C 7.8741 18.4847 4.85769 22.4724 4.85769 27.0923L 4.85769 33.3656C 4.85769 33.9006 5.25328 34.4355 5.79723 34.4841C 6.48952 34.5814 7.08291 34.0464 7.08291 33.3656L 7.08291 27.1896C 7.08291 22.5697 10.8411 18.7765 15.5882 18.3875C 14.8959 19.9436 14.5003 21.6457 14.5003 23.3478L 14.5003 34.0464C 14.5003 37.2561 17.1211 39.8821 20.3848 40.0766L 20.3848 54.763L 17.3189 54.763L 17.3189 42.654C 17.3189 42.0218 16.775 41.5355 16.1816 41.5355C 15.5388 41.5355 15.0443 42.0218 15.0937 42.654L 15.0937 54.8603L 12.2751 54.763L 12.2751 27.53C 12.2751 26.995 11.8795 26.4601 11.3356 26.4115C 10.6433 26.3142 10.0499 26.8491 10.0499 27.53L 10.0499 54.8116L 1.14898 54.8116C 0.60504 54.8116 0.0610965 55.2007 0.0116471 55.7356C -0.0872517 56.4164 0.456692 57 1.14898 57L 54.851 57C 55.395 57 55.9389 56.611 55.9884 56.076C 56.0873 55.2979 55.5433 54.7144 54.851 54.7144Z"/>
</defs>
</svg>
