<svg width="28" height="28" viewBox="0 0 28 28" version="1.1" xmlns="http://www.w3.org/2000/svg" xmlns:xlink="http://www.w3.org/1999/xlink">
<title>Group</title>
<desc>Created using Figma</desc>
<g id="Canvas" transform="translate(-8111 -754)">
<g id="Group">
<g id="Ellipse">
<mask id="mask0_outline_ins">
<use xlink:href="#path0_fill" fill="white" transform="translate(8111 754)"/>
</mask>
<g mask="url(#mask0_outline_ins)">
<use xlink:href="#path1_stroke_2x" transform="translate(8111 754)" fill="#28BD8B"/>
</g>
</g>
<g id="Picto pack">
<g id="Vector">
<use xlink:href="#path2_fill" transform="matrix(-1 0 0 1 8131 759)" fill="#28BD8B"/>
</g>
<g id="Vector">
<use xlink:href="#path3_fill" transform="matrix(-1 0 0 1 8128.57 766.196)" fill="#28BD8B"/>
</g>
<g id="Vector">
<use xlink:href="#path4_fill" transform="matrix(-1 0 0 1 8127.57 762.141)" fill="#28BD8B"/>
</g>
</g>
</g>
</g>
<defs>
<path id="path0_fill" d="M 28 14C 28 21.732 21.732 28 14 28C 6.26801 28 0 21.732 0 14C 0 6.26801 6.26801 0 14 0C 21.732 0 28 6.26801 28 14Z"/>
<path id="path1_stroke_2x" d="M 27.5 14C 27.5 21.4558 21.4558 27.5 14 27.5L 14 28.5C 22.0081 28.5 28.5 22.0081 28.5 14L 27.5 14ZM 14 27.5C 6.54416 27.5 0.5 21.4558 0.5 14L -0.5 14C -0.5 22.0081 5.99187 28.5 14 28.5L 14 27.5ZM 0.5 14C 0.5 6.54416 6.54416 0.5 14 0.5L 14 -0.5C 5.99187 -0.5 -0.5 5.99187 -0.5 14L 0.5 14ZM 14 0.5C 21.4558 0.5 27.5 6.54416 27.5 14L 28.5 14C 28.5 5.99187 22.0081 -0.5 14 -0.5L 14 0.5Z"/>
<path id="path2_fill" d="M 3.93134 1.30619C 3.93134 0.962657 3.93134 0.641771 3.93134 0.324661C 3.93134 0.0528517 3.98144 5.62536e-11 4.25124 5.62536e-11C 5.41908 5.62536e-11 6.59077 5.62536e-11 7.75861 5.62536e-11C 8.01299 5.62536e-11 8.0631 0.0528518 8.06695 0.298235C 8.0708 0.622896 8.06695 0.951332 8.06695 1.30619C 8.16331 1.30619 8.24425 1.30619 8.32518 1.30619C 8.77999 1.31752 9.2425 1.27977 9.68959 1.35527C 10.6763 1.51383 11.3315 2.34058 11.3315 3.34476C 11.3315 7.44455 11.3315 11.5481 11.3315 15.6479C 11.3315 15.7272 11.3315 15.8102 11.3315 15.9122C 11.4741 15.9122 11.6013 15.9084 11.7285 15.9122C 11.9289 15.9197 11.9983 15.9839 11.9983 16.1764C 12.0021 16.6974 11.9983 17.2221 11.9983 17.7431C 11.9983 17.9167 11.9096 17.996 11.7401 17.9998C 11.6899 17.9998 11.636 17.9998 11.5859 17.9998C 7.85882 17.9998 4.13561 17.9998 0.408551 17.9998C 0.0462511 18.0036 0 17.9583 0 17.6034C 0 17.1391 0 16.671 0 16.2066C 0 15.9839 0.0693765 15.9197 0.300632 15.9122C 0.416259 15.9084 0.528032 15.9122 0.666786 15.9122C 0.666786 15.8064 0.666786 15.7196 0.666786 15.6366C 0.666786 11.567 0.666786 7.4974 0.666786 3.42781C 0.666786 2.63126 0.971271 2.00082 1.68045 1.578C 2.01963 1.37792 2.39349 1.30619 2.78662 1.30619C 3.15663 1.30619 3.53049 1.30619 3.93134 1.30619ZM 10.869 15.9008C 10.869 15.8253 10.869 15.7574 10.869 15.6894C 10.869 11.5859 10.869 7.48607 10.869 3.38251C 10.869 2.41608 10.1984 1.75921 9.21166 1.75921C 7.08026 1.75543 4.94501 1.75921 2.8136 1.75921C 2.65558 1.75921 2.48985 1.77053 2.33568 1.80828C 1.58795 1.98572 1.1293 2.58974 1.1293 3.39761C 1.1293 7.50117 1.1293 11.601 1.1293 15.7045C 1.1293 15.7649 1.1293 15.8291 1.1293 15.9008C 4.37843 15.9008 7.60829 15.9008 10.869 15.9008ZM 0.470219 17.5581C 4.16259 17.5581 7.83955 17.5581 11.5242 17.5581C 11.5242 17.1693 11.5242 16.788 11.5242 16.4067C 7.83569 16.4067 4.15874 16.4067 0.470219 16.4067C 0.470219 16.788 0.470219 17.1655 0.470219 17.5581ZM 4.40156 1.31752C 5.47304 1.31752 6.53681 1.31752 7.58902 1.31752C 7.58902 1.03061 7.58902 0.755025 7.58902 0.479441C 6.51754 0.479441 5.46147 0.479441 4.40156 0.479441C 4.40156 0.762575 4.40156 1.03061 4.40156 1.31752Z"/>
<path id="path3_fill" d="M 5.46159 4.30645C 5.47315 4.43103 5.49242 4.54806 5.50013 4.66509C 5.54252 5.32951 5.49242 5.98639 5.31512 6.62816C 5.29585 6.69233 5.21106 6.77916 5.14554 6.79049C 4.27062 6.92639 3.39571 6.93394 2.5285 6.71499C 1.45702 6.44318 0.751689 5.80895 0.424078 4.76702C 0.0926122 3.72131 -0.00374407 2.64918 0.00011018 1.56571C 0.00011018 1.38451 0.100321 1.30146 0.304596 1.31278C 1.32597 1.36563 2.33579 1.49399 3.31091 1.81487C 3.36487 1.83375 3.41883 1.84885 3.48821 1.8715C 3.72332 1.06362 4.35927 0.689886 5.09543 0.429402C 5.72367 0.202895 6.3789 0.0745402 7.04183 0.00281286C 7.23454 -0.0160628 7.34246 0.0594397 7.35402 0.248196C 7.39642 1.12402 7.39642 1.99608 7.12662 2.84548C 6.89922 3.56653 6.39431 4.00822 5.67742 4.2385C 5.60805 4.26493 5.54252 4.2838 5.46159 4.30645ZM 4.9297 6.07699C 5.05303 5.6202 5.08001 4.89915 4.99908 4.37818C 4.84491 3.374 4.32073 2.6454 3.31477 2.32451C 2.76746 2.15086 2.20089 2.03383 1.64202 1.90925C 1.37993 1.85262 1.10628 1.8413 0.840337 1.8111C 0.836483 1.8262 0.832629 1.8413 0.828774 1.8564C 2.18933 3.26075 3.54988 4.66132 4.9297 6.07699ZM 4.62136 6.39032C 3.22227 4.95955 1.85786 3.56276 0.454912 2.12821C 0.470329 2.35849 0.481892 2.53215 0.497309 2.70203C 0.566685 3.4495 0.678459 4.18565 0.955965 4.8916C 1.2142 5.5447 1.68056 5.97506 2.35506 6.19779C 3.0758 6.4394 3.81582 6.44318 4.62136 6.39032ZM 6.89151 0.765388C 6.2016 1.49399 5.55409 2.18483 4.92199 2.85303C 5.07616 3.18902 5.21877 3.4948 5.36137 3.80436C 5.93566 3.73264 6.46369 3.30227 6.66411 2.72468C 6.8761 2.10933 6.89922 1.47134 6.89151 0.765388ZM 6.49453 0.542656C 5.80076 0.67856 5.17637 0.82579 4.60594 1.15045C 4.28218 1.33543 4.05093 1.59592 3.95072 1.95078C 3.9353 2.00363 3.96228 2.10178 4.00082 2.13198C 4.19354 2.27544 4.40167 2.40002 4.6175 2.5397C 5.22262 1.89415 5.8393 1.24105 6.49453 0.542656Z"/>
<path id="path4_fill" d="M 2.69798 0.00377518C 3.48039 0.00377518 4.2628 0.00377518 5.04907 0.00377518C 5.31887 0.00377518 5.38054 0.0604021 5.38439 0.320886C 5.38439 0.841853 5.38439 1.3666 5.38439 1.88756C 5.38439 2.13672 5.32272 2.19712 5.06449 2.19712C 3.48039 2.19712 1.89244 2.19712 0.30834 2.19712C 0.0578138 2.19712 1.09544e-15 2.1405 1.09544e-15 1.89889C 1.09544e-15 1.37037 1.09544e-15 0.841853 1.09544e-15 0.313335C 1.09544e-15 0.0566268 0.0578137 1.15208e-07 0.316049 1.15208e-07C 1.10617 1.15208e-07 1.904 0.00377518 2.69798 0.00377518ZM 4.91032 0.46434C 3.41872 0.46434 1.9464 0.46434 0.470219 0.46434C 0.470219 0.894705 0.470219 1.30997 0.470219 1.72901C 1.95411 1.72901 3.42643 1.72901 4.91032 1.72901C 4.91032 1.30619 4.91032 0.894705 4.91032 0.46434Z"/>
</defs>
</svg>
