<svg width="30" height="25" viewBox="0 0 30 25" version="1.1" xmlns="http://www.w3.org/2000/svg" xmlns:xlink="http://www.w3.org/1999/xlink">
<title>Cross 1.1</title>
<desc>Created using Figma</desc>
<g id="Canvas" transform="translate(-6972 -231)">
<g id="Cross 1.1">
<g id="Vector">
<use xlink:href="#path0_fill" transform="matrix(0.761431 -0.648246 0.761431 0.648246 6972.71 243.752)" fill="#FFFFFF"/>
</g>
</g>
</g>
<defs>
<path id="path0_fill" d="M 10.4417 9.62244C 10.5875 9.73699 10.6708 9.78906 10.7385 9.85675C 13.4824 12.5955 16.2264 15.3394 18.9599 18.0886C 19.1005 18.2292 19.2098 18.4479 19.2411 18.6457C 19.2775 18.88 19.1265 19.0727 18.9078 19.1872C 18.6892 19.3018 18.4705 19.2809 18.2674 19.1404C 18.1841 19.0831 18.1112 18.9998 18.0383 18.9269C 15.31 16.1933 12.5816 13.465 9.85332 10.7315C 9.78563 10.6638 9.73356 10.5857 9.56174 10.4659C 9.50967 10.5544 9.47323 10.6638 9.40033 10.7367C 6.66159 13.4806 3.91763 16.2246 1.17368 18.9685C 0.965412 19.1768 0.746729 19.3226 0.434325 19.2237C 0.0177854 19.0831 -0.13321 18.6041 0.132334 18.2552C 0.189608 18.1823 0.262502 18.1146 0.33019 18.0469C 3.06373 15.3082 5.79206 12.5799 8.5256 9.85154C 8.59329 9.78385 8.6818 9.73699 8.7547 9.68492C 8.76511 9.64327 8.77552 9.60162 8.78594 9.55996C 8.69742 9.5079 8.58808 9.47145 8.51519 9.39855C 5.77644 6.65981 3.03249 3.91586 0.288536 1.1719C 0.085473 0.968842 -0.0603157 0.760572 0.0281989 0.458581C 0.153161 0.0264219 0.647801 -0.140194 1.00707 0.135763C 1.09037 0.198244 1.15806 0.276345 1.23616 0.34924C 3.95408 3.06716 6.672 5.78508 9.38992 8.50299C 9.46281 8.57589 9.51488 8.66961 9.57736 8.75292C 9.61901 8.76333 9.66067 8.77374 9.69711 8.78416C 9.74918 8.69564 9.78563 8.5863 9.85852 8.51861C 12.5973 5.77466 15.3412 3.03071 18.0852 0.286759C 18.2882 0.083696 18.4965 -0.0620927 18.7985 0.0264219C 19.2307 0.151384 19.3973 0.646024 19.1213 1.00529C 19.0588 1.0886 18.9807 1.15628 18.9078 1.23439C 16.1899 3.9523 13.472 6.67022 10.7541 9.38814C 10.6812 9.45583 10.5875 9.5131 10.4417 9.62244Z"/>
</defs>
</svg>
