<svg width="175" height="13" viewBox="0 0 175 13" version="1.1" xmlns="http://www.w3.org/2000/svg" xmlns:xlink="http://www.w3.org/1999/xlink">
<title>spaceX</title>
<desc>Created using Figma</desc>
<g id="Canvas" transform="translate(-8209 604)">
<g id="spaceX">
<g id="Ellipse 2">
<mask id="mask0_outline_ins">
<use xlink:href="#path0_fill" fill="white" transform="translate(8209 -604)"/>
</mask>
<g mask="url(#mask0_outline_ins)">
<use xlink:href="#path1_stroke_2x" transform="translate(8209 -604)"/>
</g>
</g>
<g id="Ellipse">
<use xlink:href="#path2_fill" transform="translate(8210.62 -602.375)"/>
</g>
<g id="Ellipse 2.1">
<mask id="mask1_outline_ins">
<use xlink:href="#path0_fill" fill="white" transform="translate(8371 -604)"/>
</mask>
<g mask="url(#mask1_outline_ins)">
<use xlink:href="#path1_stroke_2x" transform="translate(8371 -604)"/>
</g>
</g>
<g id="Ellipse">
<use xlink:href="#path2_fill" transform="translate(8372.62 -602.375)"/>
</g>
<g id="Line">
<use xlink:href="#path3_stroke" transform="matrix(-1 1.22465e-16 -1.22465e-16 -1 8281 -598)"/>
</g>
<g id="Line">
<use xlink:href="#path4_stroke" transform="matrix(-1 1.22465e-16 -1.22465e-16 -1 8375 -598)"/>
</g>
<g id="Vector">
<use xlink:href="#path5_fill" transform="matrix(-4.37114e-08 1 -1 -4.37114e-08 8306 -604)" fill="url(#paint6_linear)"/>
</g>
</g>
</g>
<defs>
<linearGradient id="paint6_linear" x1="0" y1="0" x2="1" y2="0" gradientUnits="userSpaceOnUse" gradientTransform="matrix(6.73556e-16 22 -11 1.34711e-15 11 -1.34711e-15)">
<stop offset="0" stop-color="#28BD8B"/>
<stop offset="1" stop-color="#5290F7"/>
</linearGradient>
<path id="path0_fill" d="M 13 6.5C 13 10.0899 10.0899 13 6.5 13C 2.91015 13 0 10.0899 0 6.5C 0 2.91015 2.91015 0 6.5 0C 10.0899 0 13 2.91015 13 6.5Z"/>
<path id="path1_stroke_2x" d="M 12.75 6.5C 12.75 9.95178 9.95178 12.75 6.5 12.75L 6.5 13.25C 10.2279 13.25 13.25 10.2279 13.25 6.5L 12.75 6.5ZM 6.5 12.75C 3.04822 12.75 0.25 9.95178 0.25 6.5L -0.25 6.5C -0.25 10.2279 2.77208 13.25 6.5 13.25L 6.5 12.75ZM 0.25 6.5C 0.25 3.04822 3.04822 0.25 6.5 0.25L 6.5 -0.25C 2.77208 -0.25 -0.25 2.77208 -0.25 6.5L 0.25 6.5ZM 6.5 0.25C 9.95178 0.25 12.75 3.04822 12.75 6.5L 13.25 6.5C 13.25 2.77208 10.2279 -0.25 6.5 -0.25L 6.5 0.25Z"/>
<path id="path2_fill" d="M 9.75 4.875C 9.75 7.56739 7.56739 9.75 4.875 9.75C 2.18261 9.75 0 7.56739 0 4.875C 0 2.18261 2.18261 0 4.875 0C 7.56739 0 9.75 2.18261 9.75 4.875Z"/>
<path id="path3_stroke" d="M 0 0.5L 65 0.5L 65 -0.5L 0 -0.5L 0 0.5Z"/>
<path id="path4_stroke" d="M 0 0.5L 64 0.5L 64 -0.5L 0 -0.5L 0 0.5Z"/>
<path id="path5_fill" d="M 10.9878 21.9949C 10.891 21.903 10.8247 21.8417 10.7636 21.7804C 9.98394 20.9991 9.20428 20.2126 8.41953 19.4364C 8.32781 19.3496 8.17493 19.2781 8.05263 19.273C 6.35573 19.2628 4.65374 19.2628 2.95684 19.273C 2.83963 19.273 2.69185 19.3394 2.61032 19.4211C 1.81028 20.2075 1.02043 21.0042 0.225489 21.8008C 0.164339 21.8621 0.10319 21.9183 0.0165613 22C 0.0114655 21.8979 0.00127395 21.8264 0.00127395 21.7549C 0.00127395 20.0799 -0.00382185 18.3997 0.00636975 16.7247C 0.00636975 16.597 0.0726151 16.4438 0.164339 16.3519C 0.959284 15.5399 1.76442 14.7331 2.57465 13.9313C 2.70714 13.7985 2.753 13.6657 2.753 13.487C 2.74791 10.9081 2.74791 8.32915 2.753 5.75023C 2.753 5.58171 2.79377 5.39276 2.87021 5.24466C 3.69063 3.59006 4.52125 1.93036 5.34676 0.275766C 5.38753 0.194058 5.43339 0.112349 5.48945 0C 5.53531 0.0714949 5.57608 0.117456 5.60155 0.17363C 6.45765 1.88951 7.31884 3.60539 8.16984 5.32637C 8.22589 5.44383 8.24627 5.58682 8.24627 5.71448C 8.25137 8.30873 8.25137 10.9081 8.24627 13.5023C 8.24627 13.676 8.29723 13.8036 8.41953 13.9262C 9.23486 14.7331 10.0451 15.545 10.8502 16.3621C 10.9267 16.4387 10.9929 16.5613 10.9929 16.6634C 11.0031 18.3997 10.998 20.136 10.998 21.8723C 11.0031 21.8979 10.998 21.9234 10.9878 21.9949Z"/>
</defs>
</svg>
