<svg xmlns="http://www.w3.org/2000/svg" viewBox="0 0 2489.39 2489.39"><defs><style>.cls-1{fill:#fff;}</style></defs><title>Fichier 1</title><g id="Calque_2" data-name="Calque 2"><g id="Calque_1-2" data-name="Calque 1"><path class="cls-1" d="M1244.7,0C557.27,0,0,557.27,0,1244.7S557.27,2489.39,1244.7,2489.39,2489.39,1932.12,2489.39,1244.7,1932.12,0,1244.7,0Zm747.18,891.56c-34.7,34.33-50.66,72.17-54.89,122.7-31.9,381.22-195.14,690.87-537.88,873.9-326.69,174.45-662.5,155.21-988.43-20.91-5-2.68-9.12-6.84-26.51-20.16,185.92-3.51,354-28.12,500.28-139.92-134.42-44.1-255.57-99.72-311.09-252.67H695.57l6.72-13.42c-154.46-66.25-246.07-177.2-259.84-352.33l129.12,36.18,10.47-9.57C444.12,980.27,416.44,825.73,494.39,645c195.62,218,429.92,357,730.77,377.68-1.11-19-2.27-36.24-3.09-53.52-7-147.13,51.56-262.49,178.24-335.45,121.1-69.74,250.1-73.88,365.73,9.67,64,46.27,119.19,48.78,184.82,17.12,33.4-16.1,68.49-28.7,102.81-42.88l11.37,9.1-122,175,153.85-41.08q4.15,5.58,8.32,11.14C2067.55,811.83,2030.93,852.93,1991.88,891.56Z"/></g></g></svg>