<svg width="44" height="44" viewBox="0 0 44 44" version="1.1" xmlns="http://www.w3.org/2000/svg" xmlns:xlink="http://www.w3.org/1999/xlink">
<title>Twitter</title>
<desc>Created using Figma</desc>
<g id="Canvas" transform="translate(-7229 -2356)">
<g id="Twitter">
<g id="Vector">
<use xlink:href="#path0_fill" transform="translate(7229.14 2356.54)" fill="#FFA515"/>
</g>
</g>
</g>
<defs>
<path id="path0_fill" d="M 21.5 0C 9.62638 0 0 9.62638 0 21.5C 0 33.3736 9.62638 43 21.5 43C 33.3736 43 43 33.3736 43 21.5C 43 9.62638 33.3736 0 21.5 0ZM 34.4066 15.4008C 33.8072 15.9933 33.5308 16.6479 33.4583 17.5202C 32.9072 24.1048 30.0883 29.4543 24.167 32.6153C 18.5238 35.6295 12.7235 35.2961 7.09412 32.2543C 7.00775 32.2077 6.93693 32.1369 6.63638 31.9054C 9.84747 31.8449 12.7511 31.42 15.2782 29.4889C 12.9567 28.7271 10.8631 27.7667 9.90448 25.1239C 10.68 25.1239 11.3485 25.1239 12.0153 25.1239C 12.0533 25.0462 12.093 24.9702 12.131 24.8925C 9.46228 23.7472 7.88005 21.8316 7.64341 18.8071C 8.44143 19.0299 9.15827 19.232 9.87338 19.4324C 9.93384 19.3771 9.9943 19.3218 10.0548 19.2666C 7.67105 16.933 7.19258 14.2625 8.53989 11.1412C 11.9185 14.9085 15.9657 17.3078 21.1632 17.6653C 21.1442 17.3372 21.1234 17.0401 21.1096 16.7412C 20.9887 14.2003 22.0009 12.207 24.1877 10.9478C 26.2795 9.74383 28.5078 9.67129 30.5045 11.1153C 31.61 11.9151 32.5635 11.9583 33.6966 11.4107C 34.2736 11.1326 34.8799 10.915 35.4723 10.6697C 35.538 10.7215 35.6036 10.775 35.6692 10.8269C 35.0215 11.7562 34.3737 12.6855 33.5619 13.8497C 34.5672 13.5819 35.3929 13.3609 36.2203 13.1398C 36.2686 13.2037 36.3153 13.2676 36.3636 13.3315C 35.7124 14.0224 35.0802 14.7323 34.4066 15.4008Z"/>
</defs>
</svg>
