<svg width="43" height="41" viewBox="0 0 43 41" version="1.1" xmlns="http://www.w3.org/2000/svg" xmlns:xlink="http://www.w3.org/1999/xlink">
<title>Twitter</title>
<desc>Created using Figma</desc>
<g id="Canvas" transform="translate(-7238 -393)">
<g id="Twitter">
<g id="Vector">
<use xlink:href="#path0_fill" transform="translate(7238.14 393)" fill="#E0E0E0"/>
</g>
</g>
</g>
<defs>
<path id="path0_fill" d="M 21.1494 0C 9.46941 0 0 9.17864 0 20.5C 0 31.8214 9.46941 41 21.1494 41C 32.8295 41 42.2989 31.8214 42.2989 20.5C 42.2989 9.17864 32.8295 0 21.1494 0ZM 33.8456 14.6845C 33.2559 15.2494 32.9841 15.8736 32.9127 16.7054C 32.3707 22.9837 29.5977 28.0844 23.7729 31.0983C 18.2218 33.9723 12.516 33.6545 6.97845 30.7541C 6.89349 30.7097 6.82382 30.6421 6.52817 30.4214C 9.68691 30.3638 12.5432 29.9586 15.0291 28.1173C 12.7454 27.391 10.686 26.4753 9.74298 23.9554C 10.5059 23.9554 11.1635 23.9554 11.8194 23.9554C 11.8567 23.8813 11.8958 23.8088 11.9332 23.7347C 9.30799 22.6427 7.75156 20.8162 7.51878 17.9324C 8.30379 18.1448 9.00894 18.3375 9.71239 18.5286C 9.77186 18.4759 9.83134 18.4232 9.89081 18.3705C 7.54597 16.1454 7.0753 13.5991 8.40064 10.623C 11.7242 14.2151 15.7053 16.5028 20.8181 16.8437C 20.7994 16.5308 20.779 16.2475 20.7654 15.9626C 20.6465 13.5398 21.6422 11.6392 23.7933 10.4386C 25.851 9.29063 28.0429 9.22146 30.0072 10.5983C 31.0946 11.3609 32.0326 11.4021 33.1472 10.88C 33.7147 10.6148 34.3111 10.4073 34.8939 10.1734C 34.9585 10.2228 35.0231 10.2739 35.0876 10.3233C 34.4505 11.2094 33.8133 12.0954 33.0147 13.2055C 34.0036 12.9502 34.8158 12.7394 35.6297 12.5286C 35.6772 12.5895 35.7231 12.6505 35.7707 12.7114C 35.1301 13.3702 34.5082 14.0471 33.8456 14.6845Z"/>
</defs>
</svg>
