<svg width="29" height="25" viewBox="0 0 29 25" version="1.1" xmlns="http://www.w3.org/2000/svg" xmlns:xlink="http://www.w3.org/1999/xlink">
<title>Vector</title>
<desc>Created using Figma</desc>
<g id="Canvas" transform="translate(-6951 -2119)">
<g id="Vector">
<use xlink:href="#path0_fill" transform="matrix(0.751212 -0.660061 0.751212 0.660061 6950.87 2131.75)" fill="#4F4F4F"/>
</g>
</g>
<defs>
<path id="path0_fill" d="M 10.2548 9.4502C 10.3979 9.5627 10.4798 9.61383 10.5462 9.68031C 13.2411 12.37 15.9359 15.0649 18.6205 17.7648C 18.7586 17.9029 18.866 18.1176 18.8967 18.312C 18.9324 18.5421 18.7842 18.7313 18.5694 18.8438C 18.3546 18.9563 18.1398 18.9358 17.9404 18.7977C 17.8586 18.7415 17.787 18.6597 17.7154 18.5881C 15.0359 15.9035 12.3564 13.224 9.67694 10.5394C 9.61046 10.4729 9.55933 10.3962 9.39058 10.2786C 9.33945 10.3655 9.30365 10.4729 9.23206 10.5445C 6.54234 13.2393 3.84751 15.9342 1.15267 18.629C 0.948131 18.8335 0.733362 18.9767 0.42655 18.8796C 0.017467 18.7415 -0.130826 18.271 0.129965 17.9284C 0.186214 17.8569 0.257803 17.7904 0.324279 17.7239C 3.00889 15.0342 5.68838 12.3547 8.37299 9.67519C 8.43946 9.60872 8.52639 9.5627 8.59798 9.51156C 8.60821 9.47065 8.61844 9.42974 8.62866 9.38884C 8.54173 9.3377 8.43435 9.3019 8.36276 9.23032C 5.67304 6.5406 2.97821 3.84576 0.283371 1.15093C 0.083943 0.951499 -0.059236 0.746958 0.0276941 0.450372C 0.150419 0.0259489 0.636205 -0.137684 0.989039 0.133333C 1.07086 0.194696 1.13733 0.271399 1.21403 0.342988C 3.8833 3.01225 6.55257 5.68152 9.22184 8.35079C 9.29342 8.42238 9.34456 8.51442 9.40592 8.59624C 9.44683 8.60646 9.48774 8.61669 9.52353 8.62692C 9.57467 8.53999 9.61046 8.4326 9.68205 8.36613C 12.3718 5.67129 15.0666 2.97646 17.7614 0.281626C 17.9609 0.0821978 18.1654 -0.0609812 18.462 0.0259489C 18.8864 0.148674 19.0501 0.63446 18.779 0.987294C 18.7177 1.06911 18.641 1.13559 18.5694 1.21229C 15.9001 3.88156 13.2308 6.55082 10.5616 9.22009C 10.49 9.28656 10.3979 9.34281 10.2548 9.4502Z"/>
</defs>
</svg>
